M48
; DRILL file KiCad 10.0.1 date 2026-05-05T11:47:21
; FORMAT={-:-/ absolute / metric / decimal}
; #@! TF.CreationDate,2026-05-05T11:47:21-06:00
; #@! TF.GenerationSoftware,Kicad,Pcbnew,10.0.1
; #@! TF.FileFunction,MixedPlating,1,2
FMAT,2
METRIC
; #@! TA.AperFunction,Plated,PTH,ViaDrill
T1C0.300
; #@! TA.AperFunction,Plated,PTH,ComponentDrill
T2C0.600
; #@! TA.AperFunction,Plated,PTH,ComponentDrill
T3C0.950
; #@! TA.AperFunction,Plated,PTH,ComponentDrill
T4C1.000
; #@! TA.AperFunction,NonPlated,NPTH,ComponentDrill
T5C0.650
; #@! TA.AperFunction,NonPlated,NPTH,ComponentDrill
T6C0.900
%
G90
G05
T1
X102.496Y-100.642
X102.671Y-93.492
X102.771Y-86.467
X104.246Y-76.267
X105.571Y-94.067
X105.746Y-85.142
X108.171Y-86.217
X108.171Y-93.742
X109.246Y-101.117
X110.071Y-90.017
X111.521Y-66.567
X111.521Y-67.894
X113.371Y-86.967
X113.471Y-92.967
X114.321Y-82.167
X115.371Y-76.867
X115.725Y-83.412
X115.821Y-64.142
X117.064Y-82.073
X119.171Y-82.667
X120.471Y-82.667
X120.821Y-78.892
X120.871Y-81.267
X121.396Y-74.142
X121.421Y-95.217
X122.977Y-76.917
X123.971Y-104.417
X124.096Y-72.617
X124.29Y-95.211
X124.29Y-99.757
X124.646Y-59.967
X124.996Y-91.092
X126.171Y-83.367
X126.271Y-76.842
X127.519Y-78.817
X127.671Y-83.367
X128.824Y-78.817
X132.271Y-91.792
X132.671Y-83.467
X133.896Y-86.092
X134.871Y-65.167
X134.871Y-73.867
X135.696Y-79.117
X136.371Y-95.892
X137.796Y-108.267
X137.871Y-65.367
X137.871Y-67.367
X138.496Y-88.142
X138.796Y-58.842
X138.971Y-74.867
X139.271Y-92.467
X140.471Y-85.467
X141.246Y-58.867
X141.621Y-100.967
X141.896Y-90.842
X142.071Y-67.367
X142.171Y-65.267
X142.171Y-73.967
X145.396Y-88.617
X146.271Y-75.73
X146.271Y-77.634
X146.296Y-95.617
X146.646Y-61.467
X151.046Y-92.617
X151.771Y-85.167
X154.185Y-72.542
X155.49Y-72.542
X156.121Y-77.642
X157.496Y-82.792
X160.571Y-75.692
X160.571Y-76.367
X160.571Y-79.617
X160.596Y-80.292
X161.096Y-88.567
X161.746Y-84.642
T3
X109.254Y-102.413
X111.754Y-102.413
X113.337Y-65.425
X114.254Y-102.413
X115.837Y-65.425
X116.754Y-102.413
X118.337Y-65.425
X120.837Y-65.425
X123.337Y-65.425
T4
X103.397Y-98.781
X103.397Y-101.321
X103.397Y-103.861
X103.397Y-106.401
X105.404Y-69.215
X105.404Y-71.755
X105.404Y-74.295
X105.404Y-76.835
X107.944Y-69.215
X107.944Y-71.755
X107.944Y-74.295
X107.944Y-76.835
X134.512Y-107.366
X137.052Y-107.366
X139.592Y-107.366
X142.132Y-107.366
X144.672Y-107.366
X147.212Y-107.366
X147.999Y-61.443
X149.752Y-107.366
X150.499Y-61.443
X152.292Y-107.366
X158.794Y-60.731
X158.916Y-104.961
X161.294Y-60.731
X161.416Y-104.961
T5
X106.376Y-87.094
X106.376Y-92.874
T6
X123.905Y-106.469
X126.905Y-106.469
X147.886Y-69.46
X150.886Y-69.46
T2
G00X102.996Y-85.664
M15
G01X102.396Y-85.664
M16
G05
G00X102.996Y-94.304
M15
G01X102.396Y-94.304
M16
G05
G00X107.426Y-85.664
M15
G01X106.326Y-85.664
M16
G05
G00X107.426Y-94.304
M15
G01X106.326Y-94.304
M16
G05
M30
