%TF.GenerationSoftware,KiCad,Pcbnew,10.0.1*%
%TF.CreationDate,2026-04-28T10:00:38-06:00*%
%TF.ProjectId,Phil's_Lab_Tutorial,5068696c-2773-45f4-9c61-625f5475746f,rev?*%
%TF.SameCoordinates,Original*%
%TF.FileFunction,Paste,Top*%
%TF.FilePolarity,Positive*%
%FSLAX46Y46*%
G04 Gerber Fmt 4.6, Leading zero omitted, Abs format (unit mm)*
G04 Created by KiCad (PCBNEW 10.0.1) date 2026-04-28 10:00:38*
%MOMM*%
%LPD*%
G01*
G04 APERTURE LIST*
G04 Aperture macros list*
%AMRoundRect*
0 Rectangle with rounded corners*
0 $1 Rounding radius*
0 $2 $3 $4 $5 $6 $7 $8 $9 X,Y pos of 4 corners*
0 Add a 4 corners polygon primitive as box body*
4,1,4,$2,$3,$4,$5,$6,$7,$8,$9,$2,$3,0*
0 Add four circle primitives for the rounded corners*
1,1,$1+$1,$2,$3*
1,1,$1+$1,$4,$5*
1,1,$1+$1,$6,$7*
1,1,$1+$1,$8,$9*
0 Add four rect primitives between the rounded corners*
20,1,$1+$1,$2,$3,$4,$5,0*
20,1,$1+$1,$4,$5,$6,$7,0*
20,1,$1+$1,$6,$7,$8,$9,0*
20,1,$1+$1,$8,$9,$2,$3,0*%
G04 Aperture macros list end*
%ADD10RoundRect,0.140000X-0.140000X-0.170000X0.140000X-0.170000X0.140000X0.170000X-0.140000X0.170000X0*%
%ADD11RoundRect,0.140000X-0.170000X0.140000X-0.170000X-0.140000X0.170000X-0.140000X0.170000X0.140000X0*%
%ADD12RoundRect,0.225000X0.250000X-0.225000X0.250000X0.225000X-0.250000X0.225000X-0.250000X-0.225000X0*%
%ADD13RoundRect,0.140000X0.170000X-0.140000X0.170000X0.140000X-0.170000X0.140000X-0.170000X-0.140000X0*%
%ADD14RoundRect,0.075000X-0.075000X-0.662500X0.075000X-0.662500X0.075000X0.662500X-0.075000X0.662500X0*%
%ADD15RoundRect,0.075000X-0.662500X-0.075000X0.662500X-0.075000X0.662500X0.075000X-0.662500X0.075000X0*%
%ADD16RoundRect,0.250000X-0.350000X0.450000X-0.350000X-0.450000X0.350000X-0.450000X0.350000X0.450000X0*%
%ADD17RoundRect,0.250000X-0.450000X-0.250000X0.450000X-0.250000X0.450000X0.250000X-0.450000X0.250000X0*%
%ADD18RoundRect,0.375000X-0.375000X0.625000X-0.375000X-0.625000X0.375000X-0.625000X0.375000X0.625000X0*%
%ADD19RoundRect,0.500000X-1.400000X0.500000X-1.400000X-0.500000X1.400000X-0.500000X1.400000X0.500000X0*%
%ADD20RoundRect,0.135000X0.185000X-0.135000X0.185000X0.135000X-0.185000X0.135000X-0.185000X-0.135000X0*%
%ADD21RoundRect,0.135000X-0.135000X-0.185000X0.135000X-0.185000X0.135000X0.185000X-0.135000X0.185000X0*%
%ADD22RoundRect,0.225000X-0.225000X-0.250000X0.225000X-0.250000X0.225000X0.250000X-0.225000X0.250000X0*%
%ADD23RoundRect,0.135000X0.135000X0.185000X-0.135000X0.185000X-0.135000X-0.185000X0.135000X-0.185000X0*%
%ADD24RoundRect,0.218750X-0.218750X-0.256250X0.218750X-0.256250X0.218750X0.256250X-0.218750X0.256250X0*%
%ADD25RoundRect,0.250000X-0.250000X-0.475000X0.250000X-0.475000X0.250000X0.475000X-0.250000X0.475000X0*%
%ADD26RoundRect,0.250000X0.250000X0.475000X-0.250000X0.475000X-0.250000X-0.475000X0.250000X-0.475000X0*%
%ADD27RoundRect,0.100000X0.550000X-0.100000X0.550000X0.100000X-0.550000X0.100000X-0.550000X-0.100000X0*%
G04 APERTURE END LIST*
D10*
%TO.C,C8*%
X181000000Y-79500000D03*
X180040000Y-79500000D03*
%TD*%
D11*
%TO.C,C9*%
X170200000Y-79480000D03*
X170200000Y-78520000D03*
%TD*%
D12*
%TO.C,C5*%
X180400000Y-65825000D03*
X180400000Y-67375000D03*
%TD*%
D13*
%TO.C,C4*%
X174600000Y-66800000D03*
X174600000Y-67760000D03*
%TD*%
D14*
%TO.C,U2*%
X174542000Y-69497500D03*
X175042000Y-69497500D03*
X175542000Y-69497500D03*
X176042000Y-69497500D03*
X176542000Y-69497500D03*
X177042000Y-69497500D03*
X177542000Y-69497500D03*
X178042000Y-69497500D03*
X178542000Y-69497500D03*
X179042000Y-69497500D03*
X179542000Y-69497500D03*
X180042000Y-69497500D03*
D15*
X181454500Y-70910000D03*
X181454500Y-71410000D03*
X181454500Y-71910000D03*
X181454500Y-72410000D03*
X181454500Y-72910000D03*
X181454500Y-73410000D03*
X181454500Y-73910000D03*
X181454500Y-74410000D03*
X181454500Y-74910000D03*
X181454500Y-75410000D03*
X181454500Y-75910000D03*
X181454500Y-76410000D03*
D14*
X180042000Y-77822500D03*
X179542000Y-77822500D03*
X179042000Y-77822500D03*
X178542000Y-77822500D03*
X178042000Y-77822500D03*
X177542000Y-77822500D03*
X177042000Y-77822500D03*
X176542000Y-77822500D03*
X176042000Y-77822500D03*
X175542000Y-77822500D03*
X175042000Y-77822500D03*
X174542000Y-77822500D03*
D15*
X173129500Y-76410000D03*
X173129500Y-75910000D03*
X173129500Y-75410000D03*
X173129500Y-74910000D03*
X173129500Y-74410000D03*
X173129500Y-73910000D03*
X173129500Y-73410000D03*
X173129500Y-72910000D03*
X173129500Y-72410000D03*
X173129500Y-71910000D03*
X173129500Y-71410000D03*
X173129500Y-70910000D03*
%TD*%
D16*
%TO.C,Y1*%
X169000000Y-73000000D03*
X169000000Y-75200000D03*
X167300000Y-75200000D03*
X167300000Y-73000000D03*
%TD*%
D17*
%TO.C,SW1*%
X170400000Y-66600000D03*
X168200000Y-67550000D03*
X168200000Y-65650000D03*
%TD*%
D18*
%TO.C,U1*%
X188700000Y-84650000D03*
D19*
X191000000Y-90950000D03*
D18*
X191000000Y-84650000D03*
X193300000Y-84650000D03*
%TD*%
D20*
%TO.C,R2*%
X190500000Y-71510000D03*
X190500000Y-70490000D03*
%TD*%
D21*
%TO.C,R3*%
X197422500Y-81970000D03*
X196402500Y-81970000D03*
%TD*%
D22*
%TO.C,C6*%
X173787500Y-81490000D03*
X172237500Y-81490000D03*
%TD*%
D10*
%TO.C,C3*%
X182852000Y-77724000D03*
X181892000Y-77724000D03*
%TD*%
%TO.C,C2*%
X182852000Y-69596000D03*
X181892000Y-69596000D03*
%TD*%
D23*
%TO.C,R1*%
X167980000Y-70000000D03*
X169000000Y-70000000D03*
%TD*%
D24*
%TO.C,D1*%
X197400000Y-84200000D03*
X195825000Y-84200000D03*
%TD*%
D10*
%TO.C,C7*%
X173080000Y-79600000D03*
X172120000Y-79600000D03*
%TD*%
D25*
%TO.C,C13*%
X194182500Y-81510000D03*
X192282500Y-81510000D03*
%TD*%
D26*
%TO.C,C12*%
X186850000Y-81600000D03*
X188750000Y-81600000D03*
%TD*%
D11*
%TO.C,C10*%
X170800000Y-73080000D03*
X170800000Y-72120000D03*
%TD*%
%TO.C,C11*%
X170600000Y-76200000D03*
X170600000Y-75240000D03*
%TD*%
D24*
%TO.C,FB1*%
X173800000Y-84000000D03*
X172225000Y-84000000D03*
%TD*%
D27*
%TO.C,J1*%
X194250000Y-72200000D03*
X194250000Y-72850000D03*
X194250000Y-73500000D03*
X194250000Y-74150000D03*
X194250000Y-74800000D03*
%TD*%
D13*
%TO.C,C1*%
X172720000Y-68608000D03*
X172720000Y-69568000D03*
%TD*%
M02*
