%TF.GenerationSoftware,KiCad,Pcbnew,10.0.1*%
%TF.CreationDate,2026-04-28T10:00:38-06:00*%
%TF.ProjectId,Phil's_Lab_Tutorial,5068696c-2773-45f4-9c61-625f5475746f,rev?*%
%TF.SameCoordinates,Original*%
%TF.FileFunction,Copper,L2,Bot*%
%TF.FilePolarity,Positive*%
%FSLAX46Y46*%
G04 Gerber Fmt 4.6, Leading zero omitted, Abs format (unit mm)*
G04 Created by KiCad (PCBNEW 10.0.1) date 2026-04-28 10:00:38*
%MOMM*%
%LPD*%
G01*
G04 APERTURE LIST*
%TA.AperFunction,ComponentPad*%
%ADD10C,1.700000*%
%TD*%
%TA.AperFunction,ComponentPad*%
%ADD11R,1.700000X1.700000*%
%TD*%
%TA.AperFunction,ComponentPad*%
%ADD12O,1.100000X1.600000*%
%TD*%
%TA.AperFunction,ViaPad*%
%ADD13C,0.600000*%
%TD*%
%TA.AperFunction,Conductor*%
%ADD14C,0.300000*%
%TD*%
G04 APERTURE END LIST*
D10*
%TO.P,J4,4,Pin_4_4*%
%TO.N,GND*%
X173000000Y-63000000D03*
%TO.P,J4,3,Pin_3_3*%
%TO.N,/USART1_RX*%
X175540000Y-63000000D03*
%TO.P,J4,2,Pin_2_2*%
%TO.N,/USART1_TX*%
X178080000Y-63000000D03*
D11*
%TO.P,J4,1,Pin_1_1*%
%TO.N,+3.3V*%
X180620000Y-63000000D03*
%TD*%
D10*
%TO.P,J3,4,Pin_4_4*%
%TO.N,GND*%
X180820000Y-87200000D03*
%TO.P,J3,3,Pin_3_3*%
%TO.N,/I2C2_SDA*%
X178280000Y-87200000D03*
%TO.P,J3,2,Pin_2_2*%
%TO.N,/I2C2_SCL*%
X175740000Y-87200000D03*
D11*
%TO.P,J3,1,Pin_1_1*%
%TO.N,+3.3V*%
X173200000Y-87200000D03*
%TD*%
D10*
%TO.P,J2,4,Pin_4_4*%
%TO.N,GND*%
X184980000Y-63400000D03*
%TO.P,J2,3,Pin_3_3*%
%TO.N,/SWCLK*%
X187520000Y-63400000D03*
%TO.P,J2,2,Pin_2_2*%
%TO.N,/SWDIO*%
X190060000Y-63400000D03*
D11*
%TO.P,J2,1,Pin_1_1*%
%TO.N,+3.3V*%
X192600000Y-63400000D03*
%TD*%
D12*
%TO.P,J1,SH,Shield_SH*%
%TO.N,unconnected-(J1-Shield-PadSH)_1*%
X194300000Y-70950000D03*
%TO.N,unconnected-(J1-Shield-PadSH)*%
X194300000Y-76050000D03*
%TD*%
D13*
%TO.N,GND*%
X195500000Y-81500000D03*
X193200000Y-72200000D03*
%TO.N,Net-(U2-BOOT0)*%
X171500000Y-71000000D03*
X174500000Y-71000000D03*
%TO.N,/SWCLK*%
X180225000Y-64875000D03*
X178925000Y-65000000D03*
%TO.N,GND*%
X172250000Y-65750000D03*
X179542000Y-76770648D03*
X183000000Y-87000000D03*
%TD*%
%TO.N,Net-(U2-BOOT0)*%
D14*
X174500000Y-71000000D02*
X175000000Y-71000000D01*
X171500000Y-71000000D02*
X174500000Y-71000000D01*
%TO.N,/SWCLK*%
X180225000Y-64875000D02*
X180100000Y-65000000D01*
X180100000Y-65000000D02*
X178925000Y-65000000D01*
%TD*%
%TA.AperFunction,Conductor*%
%TO.N,GND*%
G36*
X200942539Y-59020185D02*
G01*
X200988294Y-59072989D01*
X200999500Y-59124500D01*
X200999500Y-93375500D01*
X200979815Y-93442539D01*
X200927011Y-93488294D01*
X200875500Y-93499500D01*
X162624500Y-93499500D01*
X162557461Y-93479815D01*
X162511706Y-93427011D01*
X162500500Y-93375500D01*
X162500500Y-90393713D01*
X164149500Y-90393713D01*
X164149500Y-90606286D01*
X164182753Y-90816239D01*
X164248444Y-91018414D01*
X164344951Y-91207820D01*
X164469890Y-91379786D01*
X164620213Y-91530109D01*
X164792179Y-91655048D01*
X164792181Y-91655049D01*
X164792184Y-91655051D01*
X164981588Y-91751557D01*
X165183757Y-91817246D01*
X165393713Y-91850500D01*
X165393714Y-91850500D01*
X165606286Y-91850500D01*
X165606287Y-91850500D01*
X165816243Y-91817246D01*
X166018412Y-91751557D01*
X166207816Y-91655051D01*
X166229789Y-91639086D01*
X166379786Y-91530109D01*
X166379788Y-91530106D01*
X166379792Y-91530104D01*
X166530104Y-91379792D01*
X166530106Y-91379788D01*
X166530109Y-91379786D01*
X166655048Y-91207820D01*
X166655047Y-91207820D01*
X166655051Y-91207816D01*
X166751557Y-91018412D01*
X166817246Y-90816243D01*
X166850500Y-90606287D01*
X166850500Y-90393713D01*
X196649500Y-90393713D01*
X196649500Y-90606286D01*
X196682753Y-90816239D01*
X196748444Y-91018414D01*
X196844951Y-91207820D01*
X196969890Y-91379786D01*
X197120213Y-91530109D01*
X197292179Y-91655048D01*
X197292181Y-91655049D01*
X197292184Y-91655051D01*
X197481588Y-91751557D01*
X197683757Y-91817246D01*
X197893713Y-91850500D01*
X197893714Y-91850500D01*
X198106286Y-91850500D01*
X198106287Y-91850500D01*
X198316243Y-91817246D01*
X198518412Y-91751557D01*
X198707816Y-91655051D01*
X198729789Y-91639086D01*
X198879786Y-91530109D01*
X198879788Y-91530106D01*
X198879792Y-91530104D01*
X199030104Y-91379792D01*
X199030106Y-91379788D01*
X199030109Y-91379786D01*
X199155048Y-91207820D01*
X199155047Y-91207820D01*
X199155051Y-91207816D01*
X199251557Y-91018412D01*
X199317246Y-90816243D01*
X199350500Y-90606287D01*
X199350500Y-90393713D01*
X199317246Y-90183757D01*
X199251557Y-89981588D01*
X199155051Y-89792184D01*
X199155049Y-89792181D01*
X199155048Y-89792179D01*
X199030109Y-89620213D01*
X198879786Y-89469890D01*
X198707820Y-89344951D01*
X198518414Y-89248444D01*
X198518413Y-89248443D01*
X198518412Y-89248443D01*
X198316243Y-89182754D01*
X198316241Y-89182753D01*
X198316240Y-89182753D01*
X198154957Y-89157208D01*
X198106287Y-89149500D01*
X197893713Y-89149500D01*
X197845042Y-89157208D01*
X197683760Y-89182753D01*
X197481585Y-89248444D01*
X197292179Y-89344951D01*
X197120213Y-89469890D01*
X196969890Y-89620213D01*
X196844951Y-89792179D01*
X196748444Y-89981585D01*
X196682753Y-90183760D01*
X196649500Y-90393713D01*
X166850500Y-90393713D01*
X166817246Y-90183757D01*
X166751557Y-89981588D01*
X166655051Y-89792184D01*
X166655049Y-89792181D01*
X166655048Y-89792179D01*
X166530109Y-89620213D01*
X166379786Y-89469890D01*
X166207820Y-89344951D01*
X166018414Y-89248444D01*
X166018413Y-89248443D01*
X166018412Y-89248443D01*
X165816243Y-89182754D01*
X165816241Y-89182753D01*
X165816240Y-89182753D01*
X165654957Y-89157208D01*
X165606287Y-89149500D01*
X165393713Y-89149500D01*
X165345042Y-89157208D01*
X165183760Y-89182753D01*
X164981585Y-89248444D01*
X164792179Y-89344951D01*
X164620213Y-89469890D01*
X164469890Y-89620213D01*
X164344951Y-89792179D01*
X164248444Y-89981585D01*
X164182753Y-90183760D01*
X164149500Y-90393713D01*
X162500500Y-90393713D01*
X162500500Y-86302135D01*
X171849500Y-86302135D01*
X171849500Y-88097870D01*
X171849501Y-88097876D01*
X171855908Y-88157483D01*
X171906202Y-88292328D01*
X171906206Y-88292335D01*
X171992452Y-88407544D01*
X171992455Y-88407547D01*
X172107664Y-88493793D01*
X172107671Y-88493797D01*
X172242517Y-88544091D01*
X172242516Y-88544091D01*
X172249444Y-88544835D01*
X172302127Y-88550500D01*
X174097872Y-88550499D01*
X174157483Y-88544091D01*
X174292331Y-88493796D01*
X174407546Y-88407546D01*
X174493796Y-88292331D01*
X174542810Y-88160916D01*
X174584681Y-88104984D01*
X174650145Y-88080566D01*
X174718418Y-88095417D01*
X174746673Y-88116569D01*
X174860213Y-88230109D01*
X175032179Y-88355048D01*
X175032181Y-88355049D01*
X175032184Y-88355051D01*
X175221588Y-88451557D01*
X175423757Y-88517246D01*
X175633713Y-88550500D01*
X175633714Y-88550500D01*
X175846286Y-88550500D01*
X175846287Y-88550500D01*
X176056243Y-88517246D01*
X176258412Y-88451557D01*
X176447816Y-88355051D01*
X176534138Y-88292335D01*
X176619786Y-88230109D01*
X176619788Y-88230106D01*
X176619792Y-88230104D01*
X176770104Y-88079792D01*
X176770106Y-88079788D01*
X176770109Y-88079786D01*
X176895048Y-87907820D01*
X176895047Y-87907820D01*
X176895051Y-87907816D01*
X176899514Y-87899054D01*
X176947488Y-87848259D01*
X177015308Y-87831463D01*
X177081444Y-87853999D01*
X177120486Y-87899056D01*
X177124951Y-87907820D01*
X177249890Y-88079786D01*
X177400213Y-88230109D01*
X177572179Y-88355048D01*
X177572181Y-88355049D01*
X177572184Y-88355051D01*
X177761588Y-88451557D01*
X177963757Y-88517246D01*
X178173713Y-88550500D01*
X178173714Y-88550500D01*
X178386286Y-88550500D01*
X178386287Y-88550500D01*
X178596243Y-88517246D01*
X178798412Y-88451557D01*
X178987816Y-88355051D01*
X179074138Y-88292335D01*
X179159786Y-88230109D01*
X179159788Y-88230106D01*
X179159792Y-88230104D01*
X179310104Y-88079792D01*
X179310106Y-88079788D01*
X179310109Y-88079786D01*
X179395890Y-87961717D01*
X179435051Y-87907816D01*
X179439793Y-87898508D01*
X179487763Y-87847711D01*
X179555583Y-87830911D01*
X179621719Y-87853445D01*
X179660763Y-87898500D01*
X179665373Y-87907547D01*
X179704728Y-87961716D01*
X180337037Y-87329408D01*
X180354075Y-87392993D01*
X180419901Y-87507007D01*
X180512993Y-87600099D01*
X180627007Y-87665925D01*
X180690590Y-87682962D01*
X180058282Y-88315269D01*
X180058282Y-88315270D01*
X180112449Y-88354624D01*
X180301782Y-88451095D01*
X180503870Y-88516757D01*
X180713754Y-88550000D01*
X180926246Y-88550000D01*
X181136127Y-88516757D01*
X181136130Y-88516757D01*
X181338217Y-88451095D01*
X181527554Y-88354622D01*
X181581716Y-88315270D01*
X181581717Y-88315270D01*
X180949408Y-87682962D01*
X181012993Y-87665925D01*
X181127007Y-87600099D01*
X181220099Y-87507007D01*
X181285925Y-87392993D01*
X181302962Y-87329408D01*
X181935270Y-87961717D01*
X181935270Y-87961716D01*
X181974622Y-87907554D01*
X182071095Y-87718217D01*
X182136757Y-87516130D01*
X182136757Y-87516127D01*
X182170000Y-87306246D01*
X182170000Y-87093753D01*
X182136757Y-86883872D01*
X182136757Y-86883869D01*
X182071095Y-86681782D01*
X181974624Y-86492449D01*
X181935270Y-86438282D01*
X181935269Y-86438282D01*
X181302962Y-87070590D01*
X181285925Y-87007007D01*
X181220099Y-86892993D01*
X181127007Y-86799901D01*
X181012993Y-86734075D01*
X180949409Y-86717037D01*
X181581716Y-86084728D01*
X181527550Y-86045375D01*
X181338217Y-85948904D01*
X181136129Y-85883242D01*
X180926246Y-85850000D01*
X180713754Y-85850000D01*
X180503872Y-85883242D01*
X180503869Y-85883242D01*
X180301782Y-85948904D01*
X180112439Y-86045380D01*
X180058282Y-86084727D01*
X180058282Y-86084728D01*
X180690591Y-86717037D01*
X180627007Y-86734075D01*
X180512993Y-86799901D01*
X180419901Y-86892993D01*
X180354075Y-87007007D01*
X180337037Y-87070591D01*
X179704728Y-86438282D01*
X179704727Y-86438282D01*
X179665380Y-86492440D01*
X179665376Y-86492446D01*
X179660760Y-86501505D01*
X179612781Y-86552297D01*
X179544959Y-86569087D01*
X179478826Y-86546543D01*
X179439794Y-86501493D01*
X179435051Y-86492184D01*
X179435049Y-86492181D01*
X179435048Y-86492179D01*
X179310109Y-86320213D01*
X179159786Y-86169890D01*
X178987820Y-86044951D01*
X178798414Y-85948444D01*
X178798413Y-85948443D01*
X178798412Y-85948443D01*
X178596243Y-85882754D01*
X178596241Y-85882753D01*
X178596240Y-85882753D01*
X178434957Y-85857208D01*
X178386287Y-85849500D01*
X178173713Y-85849500D01*
X178125042Y-85857208D01*
X177963760Y-85882753D01*
X177761585Y-85948444D01*
X177572179Y-86044951D01*
X177400213Y-86169890D01*
X177249890Y-86320213D01*
X177124949Y-86492182D01*
X177120484Y-86500946D01*
X177072509Y-86551742D01*
X177004688Y-86568536D01*
X176938553Y-86545998D01*
X176899516Y-86500946D01*
X176895050Y-86492182D01*
X176770109Y-86320213D01*
X176619786Y-86169890D01*
X176447820Y-86044951D01*
X176258414Y-85948444D01*
X176258413Y-85948443D01*
X176258412Y-85948443D01*
X176056243Y-85882754D01*
X176056241Y-85882753D01*
X176056240Y-85882753D01*
X175894957Y-85857208D01*
X175846287Y-85849500D01*
X175633713Y-85849500D01*
X175585042Y-85857208D01*
X175423760Y-85882753D01*
X175221585Y-85948444D01*
X175032179Y-86044951D01*
X174860215Y-86169889D01*
X174746673Y-86283431D01*
X174685350Y-86316915D01*
X174615658Y-86311931D01*
X174559725Y-86270059D01*
X174542810Y-86239082D01*
X174493797Y-86107671D01*
X174493793Y-86107664D01*
X174407547Y-85992455D01*
X174407544Y-85992452D01*
X174292335Y-85906206D01*
X174292328Y-85906202D01*
X174157482Y-85855908D01*
X174157483Y-85855908D01*
X174097883Y-85849501D01*
X174097881Y-85849500D01*
X174097873Y-85849500D01*
X174097864Y-85849500D01*
X172302129Y-85849500D01*
X172302123Y-85849501D01*
X172242516Y-85855908D01*
X172107671Y-85906202D01*
X172107664Y-85906206D01*
X171992455Y-85992452D01*
X171992452Y-85992455D01*
X171906206Y-86107664D01*
X171906202Y-86107671D01*
X171855908Y-86242517D01*
X171849501Y-86302116D01*
X171849500Y-86302135D01*
X162500500Y-86302135D01*
X162500500Y-75696530D01*
X193249500Y-75696530D01*
X193249500Y-76403469D01*
X193289868Y-76606412D01*
X193289870Y-76606420D01*
X193357518Y-76769737D01*
X193369059Y-76797598D01*
X193370998Y-76800500D01*
X193484024Y-76969657D01*
X193630342Y-77115975D01*
X193630345Y-77115977D01*
X193802402Y-77230941D01*
X193993580Y-77310130D01*
X194196530Y-77350499D01*
X194196534Y-77350500D01*
X194196535Y-77350500D01*
X194403466Y-77350500D01*
X194403467Y-77350499D01*
X194606420Y-77310130D01*
X194797598Y-77230941D01*
X194969655Y-77115977D01*
X195115977Y-76969655D01*
X195230941Y-76797598D01*
X195310130Y-76606420D01*
X195350500Y-76403465D01*
X195350500Y-75921153D01*
X195699500Y-75921153D01*
X195699500Y-76078846D01*
X195730261Y-76233489D01*
X195730264Y-76233501D01*
X195790602Y-76379172D01*
X195790609Y-76379185D01*
X195878210Y-76510288D01*
X195878213Y-76510292D01*
X195989707Y-76621786D01*
X195989711Y-76621789D01*
X196120814Y-76709390D01*
X196120827Y-76709397D01*
X196266498Y-76769735D01*
X196266503Y-76769737D01*
X196406559Y-76797596D01*
X196421153Y-76800499D01*
X196421156Y-76800500D01*
X196421158Y-76800500D01*
X196578844Y-76800500D01*
X196578845Y-76800499D01*
X196733497Y-76769737D01*
X196879179Y-76709394D01*
X197010289Y-76621789D01*
X197121789Y-76510289D01*
X197209394Y-76379179D01*
X197269737Y-76233497D01*
X197300500Y-76078842D01*
X197300500Y-75921158D01*
X197300500Y-75921155D01*
X197300499Y-75921153D01*
X197269738Y-75766510D01*
X197269737Y-75766503D01*
X197240755Y-75696534D01*
X197209397Y-75620827D01*
X197209390Y-75620814D01*
X197121789Y-75489711D01*
X197121786Y-75489707D01*
X197010292Y-75378213D01*
X197010288Y-75378210D01*
X196879185Y-75290609D01*
X196879172Y-75290602D01*
X196733501Y-75230264D01*
X196733489Y-75230261D01*
X196578845Y-75199500D01*
X196578842Y-75199500D01*
X196421158Y-75199500D01*
X196421155Y-75199500D01*
X196266510Y-75230261D01*
X196266498Y-75230264D01*
X196120827Y-75290602D01*
X196120814Y-75290609D01*
X195989711Y-75378210D01*
X195989707Y-75378213D01*
X195878213Y-75489707D01*
X195878210Y-75489711D01*
X195790609Y-75620814D01*
X195790602Y-75620827D01*
X195730264Y-75766498D01*
X195730261Y-75766510D01*
X195699500Y-75921153D01*
X195350500Y-75921153D01*
X195350500Y-75696535D01*
X195310130Y-75493580D01*
X195230941Y-75302402D01*
X195115977Y-75130345D01*
X195115975Y-75130342D01*
X194969657Y-74984024D01*
X194883626Y-74926541D01*
X194797598Y-74869059D01*
X194606420Y-74789870D01*
X194606412Y-74789868D01*
X194403469Y-74749500D01*
X194403465Y-74749500D01*
X194196535Y-74749500D01*
X194196530Y-74749500D01*
X193993587Y-74789868D01*
X193993579Y-74789870D01*
X193802403Y-74869058D01*
X193630342Y-74984024D01*
X193484024Y-75130342D01*
X193369058Y-75302403D01*
X193289870Y-75493579D01*
X193289868Y-75493587D01*
X193249500Y-75696530D01*
X162500500Y-75696530D01*
X162500500Y-70921153D01*
X170699500Y-70921153D01*
X170699500Y-71078846D01*
X170730261Y-71233489D01*
X170730264Y-71233501D01*
X170790602Y-71379172D01*
X170790609Y-71379185D01*
X170878210Y-71510288D01*
X170878213Y-71510292D01*
X170989707Y-71621786D01*
X170989711Y-71621789D01*
X171120814Y-71709390D01*
X171120827Y-71709397D01*
X171266498Y-71769735D01*
X171266503Y-71769737D01*
X171421153Y-71800499D01*
X171421156Y-71800500D01*
X171421158Y-71800500D01*
X171578844Y-71800500D01*
X171578845Y-71800499D01*
X171733497Y-71769737D01*
X171879179Y-71709394D01*
X171936044Y-71671397D01*
X172002721Y-71650520D01*
X172004935Y-71650500D01*
X173995065Y-71650500D01*
X174062104Y-71670185D01*
X174063909Y-71671366D01*
X174120821Y-71709394D01*
X174120823Y-71709395D01*
X174120827Y-71709397D01*
X174266498Y-71769735D01*
X174266503Y-71769737D01*
X174421153Y-71800499D01*
X174421156Y-71800500D01*
X174421158Y-71800500D01*
X174578844Y-71800500D01*
X174578845Y-71800499D01*
X174733497Y-71769737D01*
X174879179Y-71709394D01*
X174936044Y-71671397D01*
X175002721Y-71650520D01*
X175004935Y-71650500D01*
X175064071Y-71650500D01*
X175148615Y-71633682D01*
X175189744Y-71625501D01*
X175308127Y-71576465D01*
X175414669Y-71505276D01*
X175505276Y-71414669D01*
X175576465Y-71308127D01*
X175625501Y-71189744D01*
X175647561Y-71078844D01*
X175650500Y-71064071D01*
X175650500Y-70935928D01*
X175625502Y-70810261D01*
X175625501Y-70810260D01*
X175625501Y-70810256D01*
X175576465Y-70691873D01*
X175576464Y-70691871D01*
X175576458Y-70691861D01*
X175554725Y-70659335D01*
X175554724Y-70659334D01*
X175512759Y-70596530D01*
X193249500Y-70596530D01*
X193249500Y-71303469D01*
X193289868Y-71506412D01*
X193289870Y-71506420D01*
X193369058Y-71697596D01*
X193484024Y-71869657D01*
X193630342Y-72015975D01*
X193630345Y-72015977D01*
X193802402Y-72130941D01*
X193993580Y-72210130D01*
X194196530Y-72250499D01*
X194196534Y-72250500D01*
X194196535Y-72250500D01*
X194403466Y-72250500D01*
X194403467Y-72250499D01*
X194606420Y-72210130D01*
X194797598Y-72130941D01*
X194969655Y-72015977D01*
X195115977Y-71869655D01*
X195230941Y-71697598D01*
X195310130Y-71506420D01*
X195350500Y-71303465D01*
X195350500Y-70921153D01*
X195699500Y-70921153D01*
X195699500Y-71078846D01*
X195730261Y-71233489D01*
X195730264Y-71233501D01*
X195790602Y-71379172D01*
X195790609Y-71379185D01*
X195878210Y-71510288D01*
X195878213Y-71510292D01*
X195989707Y-71621786D01*
X195989711Y-71621789D01*
X196120814Y-71709390D01*
X196120827Y-71709397D01*
X196266498Y-71769735D01*
X196266503Y-71769737D01*
X196421153Y-71800499D01*
X196421156Y-71800500D01*
X196421158Y-71800500D01*
X196578844Y-71800500D01*
X196578845Y-71800499D01*
X196733497Y-71769737D01*
X196879179Y-71709394D01*
X197010289Y-71621789D01*
X197121789Y-71510289D01*
X197209394Y-71379179D01*
X197269737Y-71233497D01*
X197300500Y-71078842D01*
X197300500Y-70921158D01*
X197300500Y-70921155D01*
X197300499Y-70921153D01*
X197269738Y-70766510D01*
X197269737Y-70766503D01*
X197269735Y-70766498D01*
X197209397Y-70620827D01*
X197209390Y-70620814D01*
X197121789Y-70489711D01*
X197121786Y-70489707D01*
X197010292Y-70378213D01*
X197010288Y-70378210D01*
X196879185Y-70290609D01*
X196879172Y-70290602D01*
X196733501Y-70230264D01*
X196733489Y-70230261D01*
X196578845Y-70199500D01*
X196578842Y-70199500D01*
X196421158Y-70199500D01*
X196421155Y-70199500D01*
X196266510Y-70230261D01*
X196266498Y-70230264D01*
X196120827Y-70290602D01*
X196120814Y-70290609D01*
X195989711Y-70378210D01*
X195989707Y-70378213D01*
X195878213Y-70489707D01*
X195878210Y-70489711D01*
X195790609Y-70620814D01*
X195790602Y-70620827D01*
X195730264Y-70766498D01*
X195730261Y-70766510D01*
X195699500Y-70921153D01*
X195350500Y-70921153D01*
X195350500Y-70596535D01*
X195310130Y-70393580D01*
X195230941Y-70202402D01*
X195115977Y-70030345D01*
X195115975Y-70030342D01*
X194969657Y-69884024D01*
X194883626Y-69826541D01*
X194797598Y-69769059D01*
X194606420Y-69689870D01*
X194606412Y-69689868D01*
X194403469Y-69649500D01*
X194403465Y-69649500D01*
X194196535Y-69649500D01*
X194196530Y-69649500D01*
X193993587Y-69689868D01*
X193993579Y-69689870D01*
X193802403Y-69769058D01*
X193630342Y-69884024D01*
X193484024Y-70030342D01*
X193369058Y-70202403D01*
X193289870Y-70393579D01*
X193289868Y-70393587D01*
X193249500Y-70596530D01*
X175512759Y-70596530D01*
X175505276Y-70585331D01*
X175505273Y-70585327D01*
X175414672Y-70494726D01*
X175414668Y-70494723D01*
X175308133Y-70423538D01*
X175308124Y-70423533D01*
X175189744Y-70374499D01*
X175189738Y-70374497D01*
X175064071Y-70349500D01*
X175064069Y-70349500D01*
X175004935Y-70349500D01*
X174937896Y-70329815D01*
X174936090Y-70328633D01*
X174879179Y-70290606D01*
X174879172Y-70290602D01*
X174733501Y-70230264D01*
X174733489Y-70230261D01*
X174578845Y-70199500D01*
X174578842Y-70199500D01*
X174421158Y-70199500D01*
X174421155Y-70199500D01*
X174266510Y-70230261D01*
X174266498Y-70230264D01*
X174120827Y-70290602D01*
X174120820Y-70290606D01*
X174091928Y-70309911D01*
X174063955Y-70328602D01*
X173997279Y-70349480D01*
X173995065Y-70349500D01*
X172004935Y-70349500D01*
X171937896Y-70329815D01*
X171936090Y-70328633D01*
X171879179Y-70290606D01*
X171879172Y-70290602D01*
X171733501Y-70230264D01*
X171733489Y-70230261D01*
X171578845Y-70199500D01*
X171578842Y-70199500D01*
X171421158Y-70199500D01*
X171421155Y-70199500D01*
X171266510Y-70230261D01*
X171266498Y-70230264D01*
X171120827Y-70290602D01*
X171120814Y-70290609D01*
X170989711Y-70378210D01*
X170989707Y-70378213D01*
X170878213Y-70489707D01*
X170878210Y-70489711D01*
X170790609Y-70620814D01*
X170790602Y-70620827D01*
X170730264Y-70766498D01*
X170730261Y-70766510D01*
X170699500Y-70921153D01*
X162500500Y-70921153D01*
X162500500Y-62393713D01*
X164149500Y-62393713D01*
X164149500Y-62606286D01*
X164164579Y-62701495D01*
X164182754Y-62816243D01*
X164242460Y-62999999D01*
X164248444Y-63018414D01*
X164344951Y-63207820D01*
X164469890Y-63379786D01*
X164620213Y-63530109D01*
X164792179Y-63655048D01*
X164792181Y-63655049D01*
X164792184Y-63655051D01*
X164981588Y-63751557D01*
X165183757Y-63817246D01*
X165393713Y-63850500D01*
X165393714Y-63850500D01*
X165606286Y-63850500D01*
X165606287Y-63850500D01*
X165816243Y-63817246D01*
X166018412Y-63751557D01*
X166207816Y-63655051D01*
X166293232Y-63592993D01*
X166379786Y-63530109D01*
X166379788Y-63530106D01*
X166379792Y-63530104D01*
X166530104Y-63379792D01*
X166530106Y-63379788D01*
X166530109Y-63379786D01*
X166655048Y-63207820D01*
X166655047Y-63207820D01*
X166655051Y-63207816D01*
X166751557Y-63018412D01*
X166792061Y-62893753D01*
X171650000Y-62893753D01*
X171650000Y-63106246D01*
X171683242Y-63316127D01*
X171683242Y-63316130D01*
X171748904Y-63518217D01*
X171845375Y-63707550D01*
X171884728Y-63761716D01*
X172517037Y-63129408D01*
X172534075Y-63192993D01*
X172599901Y-63307007D01*
X172692993Y-63400099D01*
X172807007Y-63465925D01*
X172870590Y-63482962D01*
X172238282Y-64115269D01*
X172238282Y-64115270D01*
X172292449Y-64154624D01*
X172481782Y-64251095D01*
X172683870Y-64316757D01*
X172893754Y-64350000D01*
X173106246Y-64350000D01*
X173316127Y-64316757D01*
X173316130Y-64316757D01*
X173518217Y-64251095D01*
X173707554Y-64154622D01*
X173761716Y-64115270D01*
X173761717Y-64115270D01*
X173129408Y-63482962D01*
X173192993Y-63465925D01*
X173307007Y-63400099D01*
X173400099Y-63307007D01*
X173465925Y-63192993D01*
X173482962Y-63129408D01*
X174115270Y-63761717D01*
X174115270Y-63761716D01*
X174154622Y-63707555D01*
X174159232Y-63698507D01*
X174207205Y-63647709D01*
X174275025Y-63630912D01*
X174341161Y-63653447D01*
X174380204Y-63698504D01*
X174384949Y-63707817D01*
X174509890Y-63879786D01*
X174660213Y-64030109D01*
X174832179Y-64155048D01*
X174832181Y-64155049D01*
X174832184Y-64155051D01*
X175021588Y-64251557D01*
X175223757Y-64317246D01*
X175433713Y-64350500D01*
X175433714Y-64350500D01*
X175646286Y-64350500D01*
X175646287Y-64350500D01*
X175856243Y-64317246D01*
X176058412Y-64251557D01*
X176247816Y-64155051D01*
X176302572Y-64115269D01*
X176419786Y-64030109D01*
X176419788Y-64030106D01*
X176419792Y-64030104D01*
X176570104Y-63879792D01*
X176570106Y-63879788D01*
X176570109Y-63879786D01*
X176695048Y-63707820D01*
X176695050Y-63707817D01*
X176695051Y-63707816D01*
X176699514Y-63699054D01*
X176747488Y-63648259D01*
X176815308Y-63631463D01*
X176881444Y-63653999D01*
X176920486Y-63699056D01*
X176924951Y-63707820D01*
X177049890Y-63879786D01*
X177200213Y-64030109D01*
X177372179Y-64155048D01*
X177372181Y-64155049D01*
X177372184Y-64155051D01*
X177561588Y-64251557D01*
X177763757Y-64317246D01*
X177973713Y-64350500D01*
X177973714Y-64350500D01*
X178164241Y-64350500D01*
X178231280Y-64370185D01*
X178277035Y-64422989D01*
X178286979Y-64492147D01*
X178267343Y-64543391D01*
X178215609Y-64620815D01*
X178215602Y-64620827D01*
X178155264Y-64766498D01*
X178155261Y-64766510D01*
X178124500Y-64921153D01*
X178124500Y-65078846D01*
X178155261Y-65233489D01*
X178155264Y-65233501D01*
X178215602Y-65379172D01*
X178215609Y-65379185D01*
X178303210Y-65510288D01*
X178303213Y-65510292D01*
X178414707Y-65621786D01*
X178414711Y-65621789D01*
X178545814Y-65709390D01*
X178545827Y-65709397D01*
X178691498Y-65769735D01*
X178691503Y-65769737D01*
X178846153Y-65800499D01*
X178846156Y-65800500D01*
X178846158Y-65800500D01*
X179003844Y-65800500D01*
X179003845Y-65800499D01*
X179158497Y-65769737D01*
X179304179Y-65709394D01*
X179361044Y-65671397D01*
X179427721Y-65650520D01*
X179429935Y-65650500D01*
X180008264Y-65650500D01*
X180032454Y-65652882D01*
X180058614Y-65658086D01*
X180146155Y-65675500D01*
X180146158Y-65675500D01*
X180303844Y-65675500D01*
X180303845Y-65675499D01*
X180458497Y-65644737D01*
X180604179Y-65584394D01*
X180735289Y-65496789D01*
X180846789Y-65385289D01*
X180934394Y-65254179D01*
X180994737Y-65108497D01*
X181025500Y-64953842D01*
X181025500Y-64796158D01*
X181025500Y-64796155D01*
X181025499Y-64796153D01*
X181016418Y-64750499D01*
X180994737Y-64641503D01*
X180958928Y-64555051D01*
X180945218Y-64521951D01*
X180937749Y-64452482D01*
X180969025Y-64390003D01*
X181029114Y-64354351D01*
X181059779Y-64350499D01*
X181517871Y-64350499D01*
X181517872Y-64350499D01*
X181571622Y-64344721D01*
X181571623Y-64344721D01*
X181571995Y-64344680D01*
X181577483Y-64344091D01*
X181712331Y-64293796D01*
X181827546Y-64207546D01*
X181913796Y-64092331D01*
X181964091Y-63957483D01*
X181970500Y-63897873D01*
X181970499Y-63293753D01*
X183630000Y-63293753D01*
X183630000Y-63506246D01*
X183663242Y-63716127D01*
X183663242Y-63716130D01*
X183728904Y-63918217D01*
X183825375Y-64107550D01*
X183864728Y-64161716D01*
X184497037Y-63529408D01*
X184514075Y-63592993D01*
X184579901Y-63707007D01*
X184672993Y-63800099D01*
X184787007Y-63865925D01*
X184850590Y-63882962D01*
X184218282Y-64515269D01*
X184218282Y-64515270D01*
X184272449Y-64554624D01*
X184461782Y-64651095D01*
X184663870Y-64716757D01*
X184873754Y-64750000D01*
X185086246Y-64750000D01*
X185296127Y-64716757D01*
X185296130Y-64716757D01*
X185498217Y-64651095D01*
X185687554Y-64554622D01*
X185741716Y-64515270D01*
X185741717Y-64515270D01*
X185109408Y-63882962D01*
X185172993Y-63865925D01*
X185287007Y-63800099D01*
X185380099Y-63707007D01*
X185445925Y-63592993D01*
X185462962Y-63529408D01*
X186095270Y-64161717D01*
X186095270Y-64161716D01*
X186134622Y-64107555D01*
X186139232Y-64098507D01*
X186187205Y-64047709D01*
X186255025Y-64030912D01*
X186321161Y-64053447D01*
X186360204Y-64098504D01*
X186364949Y-64107817D01*
X186489890Y-64279786D01*
X186640213Y-64430109D01*
X186812179Y-64555048D01*
X186812181Y-64555049D01*
X186812184Y-64555051D01*
X187001588Y-64651557D01*
X187203757Y-64717246D01*
X187413713Y-64750500D01*
X187413714Y-64750500D01*
X187626286Y-64750500D01*
X187626287Y-64750500D01*
X187836243Y-64717246D01*
X188038412Y-64651557D01*
X188227816Y-64555051D01*
X188314138Y-64492335D01*
X188399786Y-64430109D01*
X188399788Y-64430106D01*
X188399792Y-64430104D01*
X188550104Y-64279792D01*
X188550106Y-64279788D01*
X188550109Y-64279786D01*
X188675048Y-64107820D01*
X188675050Y-64107817D01*
X188675051Y-64107816D01*
X188679514Y-64099054D01*
X188727488Y-64048259D01*
X188795308Y-64031463D01*
X188861444Y-64053999D01*
X188900486Y-64099056D01*
X188904951Y-64107820D01*
X189029890Y-64279786D01*
X189180213Y-64430109D01*
X189352179Y-64555048D01*
X189352181Y-64555049D01*
X189352184Y-64555051D01*
X189541588Y-64651557D01*
X189743757Y-64717246D01*
X189953713Y-64750500D01*
X189953714Y-64750500D01*
X190166286Y-64750500D01*
X190166287Y-64750500D01*
X190376243Y-64717246D01*
X190578412Y-64651557D01*
X190767816Y-64555051D01*
X190939792Y-64430104D01*
X191053329Y-64316566D01*
X191114648Y-64283084D01*
X191184340Y-64288068D01*
X191240274Y-64329939D01*
X191257189Y-64360917D01*
X191306202Y-64492328D01*
X191306206Y-64492335D01*
X191392452Y-64607544D01*
X191392455Y-64607547D01*
X191507664Y-64693793D01*
X191507671Y-64693797D01*
X191642517Y-64744091D01*
X191642516Y-64744091D01*
X191649444Y-64744835D01*
X191702127Y-64750500D01*
X193497872Y-64750499D01*
X193557483Y-64744091D01*
X193692331Y-64693796D01*
X193807546Y-64607546D01*
X193893796Y-64492331D01*
X193944091Y-64357483D01*
X193950500Y-64297873D01*
X193950499Y-62502128D01*
X193944091Y-62442517D01*
X193942810Y-62439083D01*
X193893797Y-62307671D01*
X193893793Y-62307664D01*
X193807547Y-62192455D01*
X193807544Y-62192452D01*
X193692335Y-62106206D01*
X193692328Y-62106202D01*
X193557482Y-62055908D01*
X193557483Y-62055908D01*
X193497883Y-62049501D01*
X193497881Y-62049500D01*
X193497873Y-62049500D01*
X193497864Y-62049500D01*
X191702129Y-62049500D01*
X191702123Y-62049501D01*
X191642516Y-62055908D01*
X191507671Y-62106202D01*
X191507664Y-62106206D01*
X191392455Y-62192452D01*
X191392452Y-62192455D01*
X191306206Y-62307664D01*
X191306203Y-62307669D01*
X191257189Y-62439083D01*
X191215317Y-62495016D01*
X191149853Y-62519433D01*
X191081580Y-62504581D01*
X191053326Y-62483430D01*
X190939786Y-62369890D01*
X190767820Y-62244951D01*
X190578414Y-62148444D01*
X190578413Y-62148443D01*
X190578412Y-62148443D01*
X190376243Y-62082754D01*
X190376241Y-62082753D01*
X190376240Y-62082753D01*
X190214957Y-62057208D01*
X190166287Y-62049500D01*
X189953713Y-62049500D01*
X189905042Y-62057208D01*
X189743760Y-62082753D01*
X189541585Y-62148444D01*
X189352179Y-62244951D01*
X189180213Y-62369890D01*
X189029890Y-62520213D01*
X188904949Y-62692182D01*
X188900484Y-62700946D01*
X188852509Y-62751742D01*
X188784688Y-62768536D01*
X188718553Y-62745998D01*
X188679516Y-62700946D01*
X188675050Y-62692182D01*
X188550109Y-62520213D01*
X188399786Y-62369890D01*
X188227820Y-62244951D01*
X188038414Y-62148444D01*
X188038413Y-62148443D01*
X188038412Y-62148443D01*
X187836243Y-62082754D01*
X187836241Y-62082753D01*
X187836240Y-62082753D01*
X187674957Y-62057208D01*
X187626287Y-62049500D01*
X187413713Y-62049500D01*
X187365042Y-62057208D01*
X187203760Y-62082753D01*
X187001585Y-62148444D01*
X186812179Y-62244951D01*
X186640213Y-62369890D01*
X186489890Y-62520213D01*
X186364949Y-62692182D01*
X186360202Y-62701499D01*
X186312227Y-62752293D01*
X186244405Y-62769087D01*
X186178271Y-62746548D01*
X186139234Y-62701495D01*
X186134626Y-62692452D01*
X186095270Y-62638282D01*
X186095269Y-62638282D01*
X185462962Y-63270590D01*
X185445925Y-63207007D01*
X185380099Y-63092993D01*
X185287007Y-62999901D01*
X185172993Y-62934075D01*
X185109409Y-62917037D01*
X185741716Y-62284728D01*
X185687550Y-62245375D01*
X185498217Y-62148904D01*
X185296129Y-62083242D01*
X185086246Y-62050000D01*
X184873754Y-62050000D01*
X184663872Y-62083242D01*
X184663869Y-62083242D01*
X184461782Y-62148904D01*
X184272439Y-62245380D01*
X184218282Y-62284727D01*
X184218282Y-62284728D01*
X184850591Y-62917037D01*
X184787007Y-62934075D01*
X184672993Y-62999901D01*
X184579901Y-63092993D01*
X184514075Y-63207007D01*
X184497037Y-63270591D01*
X183864728Y-62638282D01*
X183864727Y-62638282D01*
X183825380Y-62692439D01*
X183728904Y-62881782D01*
X183663242Y-63083869D01*
X183663242Y-63083872D01*
X183630000Y-63293753D01*
X181970499Y-63293753D01*
X181970499Y-63000000D01*
X181970499Y-62331987D01*
X181970499Y-62102129D01*
X181970498Y-62102123D01*
X181964091Y-62042516D01*
X181922936Y-61932174D01*
X181922935Y-61932172D01*
X181913798Y-61907673D01*
X181913793Y-61907664D01*
X181903349Y-61893713D01*
X196149500Y-61893713D01*
X196149500Y-62106286D01*
X196180418Y-62301499D01*
X196182754Y-62316243D01*
X196243152Y-62502129D01*
X196248444Y-62518414D01*
X196344951Y-62707820D01*
X196469890Y-62879786D01*
X196620213Y-63030109D01*
X196792179Y-63155048D01*
X196792181Y-63155049D01*
X196792184Y-63155051D01*
X196981588Y-63251557D01*
X197183757Y-63317246D01*
X197393713Y-63350500D01*
X197393714Y-63350500D01*
X197606286Y-63350500D01*
X197606287Y-63350500D01*
X197816243Y-63317246D01*
X198018412Y-63251557D01*
X198207816Y-63155051D01*
X198229789Y-63139086D01*
X198379786Y-63030109D01*
X198379788Y-63030106D01*
X198379792Y-63030104D01*
X198530104Y-62879792D01*
X198530106Y-62879788D01*
X198530109Y-62879786D01*
X198655048Y-62707820D01*
X198655047Y-62707820D01*
X198655051Y-62707816D01*
X198751557Y-62518412D01*
X198817246Y-62316243D01*
X198850500Y-62106287D01*
X198850500Y-61893713D01*
X198817246Y-61683757D01*
X198751557Y-61481588D01*
X198655051Y-61292184D01*
X198655049Y-61292181D01*
X198655048Y-61292179D01*
X198530109Y-61120213D01*
X198379786Y-60969890D01*
X198207820Y-60844951D01*
X198018414Y-60748444D01*
X198018413Y-60748443D01*
X198018412Y-60748443D01*
X197816243Y-60682754D01*
X197816241Y-60682753D01*
X197816240Y-60682753D01*
X197654957Y-60657208D01*
X197606287Y-60649500D01*
X197393713Y-60649500D01*
X197345042Y-60657208D01*
X197183760Y-60682753D01*
X196981585Y-60748444D01*
X196792179Y-60844951D01*
X196620213Y-60969890D01*
X196469890Y-61120213D01*
X196344951Y-61292179D01*
X196248444Y-61481585D01*
X196182753Y-61683760D01*
X196149500Y-61893713D01*
X181903349Y-61893713D01*
X181827547Y-61792455D01*
X181827544Y-61792452D01*
X181712335Y-61706206D01*
X181712328Y-61706202D01*
X181577482Y-61655908D01*
X181577483Y-61655908D01*
X181517883Y-61649501D01*
X181517881Y-61649500D01*
X181517873Y-61649500D01*
X181517864Y-61649500D01*
X179722129Y-61649500D01*
X179722123Y-61649501D01*
X179662516Y-61655908D01*
X179527671Y-61706202D01*
X179527664Y-61706206D01*
X179412455Y-61792452D01*
X179412452Y-61792455D01*
X179326206Y-61907664D01*
X179326203Y-61907669D01*
X179277189Y-62039083D01*
X179235317Y-62095016D01*
X179169853Y-62119433D01*
X179101580Y-62104581D01*
X179073326Y-62083430D01*
X178959786Y-61969890D01*
X178787820Y-61844951D01*
X178598414Y-61748444D01*
X178598413Y-61748443D01*
X178598412Y-61748443D01*
X178396243Y-61682754D01*
X178396241Y-61682753D01*
X178396240Y-61682753D01*
X178234957Y-61657208D01*
X178186287Y-61649500D01*
X177973713Y-61649500D01*
X177925042Y-61657208D01*
X177763760Y-61682753D01*
X177561585Y-61748444D01*
X177372179Y-61844951D01*
X177200213Y-61969890D01*
X177049890Y-62120213D01*
X176924949Y-62292182D01*
X176920484Y-62300946D01*
X176872509Y-62351742D01*
X176804688Y-62368536D01*
X176738553Y-62345998D01*
X176699516Y-62300946D01*
X176695050Y-62292182D01*
X176570109Y-62120213D01*
X176419786Y-61969890D01*
X176247820Y-61844951D01*
X176058414Y-61748444D01*
X176058413Y-61748443D01*
X176058412Y-61748443D01*
X175856243Y-61682754D01*
X175856241Y-61682753D01*
X175856240Y-61682753D01*
X175694957Y-61657208D01*
X175646287Y-61649500D01*
X175433713Y-61649500D01*
X175385042Y-61657208D01*
X175223760Y-61682753D01*
X175021585Y-61748444D01*
X174832179Y-61844951D01*
X174660213Y-61969890D01*
X174509890Y-62120213D01*
X174384949Y-62292182D01*
X174380202Y-62301499D01*
X174332227Y-62352293D01*
X174264405Y-62369087D01*
X174198271Y-62346548D01*
X174159234Y-62301495D01*
X174154626Y-62292452D01*
X174115270Y-62238282D01*
X174115269Y-62238282D01*
X173482962Y-62870590D01*
X173465925Y-62807007D01*
X173400099Y-62692993D01*
X173307007Y-62599901D01*
X173192993Y-62534075D01*
X173129409Y-62517037D01*
X173761716Y-61884728D01*
X173707550Y-61845375D01*
X173518217Y-61748904D01*
X173316129Y-61683242D01*
X173106246Y-61650000D01*
X172893754Y-61650000D01*
X172683872Y-61683242D01*
X172683869Y-61683242D01*
X172481782Y-61748904D01*
X172292439Y-61845380D01*
X172238282Y-61884727D01*
X172238282Y-61884728D01*
X172870591Y-62517037D01*
X172807007Y-62534075D01*
X172692993Y-62599901D01*
X172599901Y-62692993D01*
X172534075Y-62807007D01*
X172517037Y-62870591D01*
X171884728Y-62238282D01*
X171884727Y-62238282D01*
X171845380Y-62292439D01*
X171748904Y-62481782D01*
X171683242Y-62683869D01*
X171683242Y-62683872D01*
X171650000Y-62893753D01*
X166792061Y-62893753D01*
X166817246Y-62816243D01*
X166850500Y-62606287D01*
X166850500Y-62393713D01*
X166817246Y-62183757D01*
X166751557Y-61981588D01*
X166655051Y-61792184D01*
X166655049Y-61792181D01*
X166655048Y-61792179D01*
X166530109Y-61620213D01*
X166379786Y-61469890D01*
X166207820Y-61344951D01*
X166018414Y-61248444D01*
X166018413Y-61248443D01*
X166018412Y-61248443D01*
X165816243Y-61182754D01*
X165816241Y-61182753D01*
X165816240Y-61182753D01*
X165654957Y-61157208D01*
X165606287Y-61149500D01*
X165393713Y-61149500D01*
X165345042Y-61157208D01*
X165183760Y-61182753D01*
X164981585Y-61248444D01*
X164792179Y-61344951D01*
X164620213Y-61469890D01*
X164469890Y-61620213D01*
X164344951Y-61792179D01*
X164248444Y-61981585D01*
X164182753Y-62183760D01*
X164149500Y-62393713D01*
X162500500Y-62393713D01*
X162500500Y-59124500D01*
X162520185Y-59057461D01*
X162572989Y-59011706D01*
X162624500Y-59000500D01*
X200875500Y-59000500D01*
X200942539Y-59020185D01*
G37*
%TD.AperFunction*%
%TD*%
M02*
