%TF.GenerationSoftware,KiCad,Pcbnew,10.0.1*%
%TF.CreationDate,2026-04-28T10:00:38-06:00*%
%TF.ProjectId,Phil's_Lab_Tutorial,5068696c-2773-45f4-9c61-625f5475746f,rev?*%
%TF.SameCoordinates,Original*%
%TF.FileFunction,Legend,Bot*%
%TF.FilePolarity,Positive*%
%FSLAX46Y46*%
G04 Gerber Fmt 4.6, Leading zero omitted, Abs format (unit mm)*
G04 Created by KiCad (PCBNEW 10.0.1) date 2026-04-28 10:00:38*
%MOMM*%
%LPD*%
G01*
G04 APERTURE LIST*
%ADD10C,0.100000*%
G04 APERTURE END LIST*
D10*
X200124687Y-66042587D02*
X200458020Y-65566396D01*
X200696115Y-66042587D02*
X200696115Y-65042587D01*
X200696115Y-65042587D02*
X200315163Y-65042587D01*
X200315163Y-65042587D02*
X200219925Y-65090206D01*
X200219925Y-65090206D02*
X200172306Y-65137825D01*
X200172306Y-65137825D02*
X200124687Y-65233063D01*
X200124687Y-65233063D02*
X200124687Y-65375920D01*
X200124687Y-65375920D02*
X200172306Y-65471158D01*
X200172306Y-65471158D02*
X200219925Y-65518777D01*
X200219925Y-65518777D02*
X200315163Y-65566396D01*
X200315163Y-65566396D02*
X200696115Y-65566396D01*
X199696115Y-66042587D02*
X199696115Y-65375920D01*
X199696115Y-65042587D02*
X199743734Y-65090206D01*
X199743734Y-65090206D02*
X199696115Y-65137825D01*
X199696115Y-65137825D02*
X199648496Y-65090206D01*
X199648496Y-65090206D02*
X199696115Y-65042587D01*
X199696115Y-65042587D02*
X199696115Y-65137825D01*
X199077068Y-66042587D02*
X199172306Y-65994968D01*
X199172306Y-65994968D02*
X199219925Y-65899729D01*
X199219925Y-65899729D02*
X199219925Y-65042587D01*
X198315163Y-65994968D02*
X198410401Y-66042587D01*
X198410401Y-66042587D02*
X198600877Y-66042587D01*
X198600877Y-66042587D02*
X198696115Y-65994968D01*
X198696115Y-65994968D02*
X198743734Y-65899729D01*
X198743734Y-65899729D02*
X198743734Y-65518777D01*
X198743734Y-65518777D02*
X198696115Y-65423539D01*
X198696115Y-65423539D02*
X198600877Y-65375920D01*
X198600877Y-65375920D02*
X198410401Y-65375920D01*
X198410401Y-65375920D02*
X198315163Y-65423539D01*
X198315163Y-65423539D02*
X198267544Y-65518777D01*
X198267544Y-65518777D02*
X198267544Y-65614015D01*
X198267544Y-65614015D02*
X198743734Y-65709253D01*
X197934210Y-65375920D02*
X197696115Y-66042587D01*
X197458020Y-65375920D02*
X197696115Y-66042587D01*
X197696115Y-66042587D02*
X197791353Y-66280682D01*
X197791353Y-66280682D02*
X197838972Y-66328301D01*
X197838972Y-66328301D02*
X197934210Y-66375920D01*
X196362781Y-65994968D02*
X196219924Y-66042587D01*
X196219924Y-66042587D02*
X195981829Y-66042587D01*
X195981829Y-66042587D02*
X195886591Y-65994968D01*
X195886591Y-65994968D02*
X195838972Y-65947348D01*
X195838972Y-65947348D02*
X195791353Y-65852110D01*
X195791353Y-65852110D02*
X195791353Y-65756872D01*
X195791353Y-65756872D02*
X195838972Y-65661634D01*
X195838972Y-65661634D02*
X195886591Y-65614015D01*
X195886591Y-65614015D02*
X195981829Y-65566396D01*
X195981829Y-65566396D02*
X196172305Y-65518777D01*
X196172305Y-65518777D02*
X196267543Y-65471158D01*
X196267543Y-65471158D02*
X196315162Y-65423539D01*
X196315162Y-65423539D02*
X196362781Y-65328301D01*
X196362781Y-65328301D02*
X196362781Y-65233063D01*
X196362781Y-65233063D02*
X196315162Y-65137825D01*
X196315162Y-65137825D02*
X196267543Y-65090206D01*
X196267543Y-65090206D02*
X196172305Y-65042587D01*
X196172305Y-65042587D02*
X195934210Y-65042587D01*
X195934210Y-65042587D02*
X195791353Y-65090206D01*
X195505638Y-65375920D02*
X195124686Y-65375920D01*
X195362781Y-65042587D02*
X195362781Y-65899729D01*
X195362781Y-65899729D02*
X195315162Y-65994968D01*
X195315162Y-65994968D02*
X195219924Y-66042587D01*
X195219924Y-66042587D02*
X195124686Y-66042587D01*
X194791352Y-66042587D02*
X194791352Y-65375920D01*
X194791352Y-65566396D02*
X194743733Y-65471158D01*
X194743733Y-65471158D02*
X194696114Y-65423539D01*
X194696114Y-65423539D02*
X194600876Y-65375920D01*
X194600876Y-65375920D02*
X194505638Y-65375920D01*
X194029447Y-66042587D02*
X194124685Y-65994968D01*
X194124685Y-65994968D02*
X194172304Y-65947348D01*
X194172304Y-65947348D02*
X194219923Y-65852110D01*
X194219923Y-65852110D02*
X194219923Y-65566396D01*
X194219923Y-65566396D02*
X194172304Y-65471158D01*
X194172304Y-65471158D02*
X194124685Y-65423539D01*
X194124685Y-65423539D02*
X194029447Y-65375920D01*
X194029447Y-65375920D02*
X193886590Y-65375920D01*
X193886590Y-65375920D02*
X193791352Y-65423539D01*
X193791352Y-65423539D02*
X193743733Y-65471158D01*
X193743733Y-65471158D02*
X193696114Y-65566396D01*
X193696114Y-65566396D02*
X193696114Y-65852110D01*
X193696114Y-65852110D02*
X193743733Y-65947348D01*
X193743733Y-65947348D02*
X193791352Y-65994968D01*
X193791352Y-65994968D02*
X193886590Y-66042587D01*
X193886590Y-66042587D02*
X194029447Y-66042587D01*
X192838971Y-66042587D02*
X192838971Y-65042587D01*
X192838971Y-65994968D02*
X192934209Y-66042587D01*
X192934209Y-66042587D02*
X193124685Y-66042587D01*
X193124685Y-66042587D02*
X193219923Y-65994968D01*
X193219923Y-65994968D02*
X193267542Y-65947348D01*
X193267542Y-65947348D02*
X193315161Y-65852110D01*
X193315161Y-65852110D02*
X193315161Y-65566396D01*
X193315161Y-65566396D02*
X193267542Y-65471158D01*
X193267542Y-65471158D02*
X193219923Y-65423539D01*
X193219923Y-65423539D02*
X193124685Y-65375920D01*
X193124685Y-65375920D02*
X192934209Y-65375920D01*
X192934209Y-65375920D02*
X192838971Y-65423539D01*
X191981828Y-65994968D02*
X192077066Y-66042587D01*
X192077066Y-66042587D02*
X192267542Y-66042587D01*
X192267542Y-66042587D02*
X192362780Y-65994968D01*
X192362780Y-65994968D02*
X192410399Y-65899729D01*
X192410399Y-65899729D02*
X192410399Y-65518777D01*
X192410399Y-65518777D02*
X192362780Y-65423539D01*
X192362780Y-65423539D02*
X192267542Y-65375920D01*
X192267542Y-65375920D02*
X192077066Y-65375920D01*
X192077066Y-65375920D02*
X191981828Y-65423539D01*
X191981828Y-65423539D02*
X191934209Y-65518777D01*
X191934209Y-65518777D02*
X191934209Y-65614015D01*
X191934209Y-65614015D02*
X192410399Y-65709253D01*
X200743734Y-66747769D02*
X200696115Y-66700150D01*
X200696115Y-66700150D02*
X200600877Y-66652531D01*
X200600877Y-66652531D02*
X200362782Y-66652531D01*
X200362782Y-66652531D02*
X200267544Y-66700150D01*
X200267544Y-66700150D02*
X200219925Y-66747769D01*
X200219925Y-66747769D02*
X200172306Y-66843007D01*
X200172306Y-66843007D02*
X200172306Y-66938245D01*
X200172306Y-66938245D02*
X200219925Y-67081102D01*
X200219925Y-67081102D02*
X200791353Y-67652531D01*
X200791353Y-67652531D02*
X200172306Y-67652531D01*
X199553258Y-66652531D02*
X199458020Y-66652531D01*
X199458020Y-66652531D02*
X199362782Y-66700150D01*
X199362782Y-66700150D02*
X199315163Y-66747769D01*
X199315163Y-66747769D02*
X199267544Y-66843007D01*
X199267544Y-66843007D02*
X199219925Y-67033483D01*
X199219925Y-67033483D02*
X199219925Y-67271578D01*
X199219925Y-67271578D02*
X199267544Y-67462054D01*
X199267544Y-67462054D02*
X199315163Y-67557292D01*
X199315163Y-67557292D02*
X199362782Y-67604912D01*
X199362782Y-67604912D02*
X199458020Y-67652531D01*
X199458020Y-67652531D02*
X199553258Y-67652531D01*
X199553258Y-67652531D02*
X199648496Y-67604912D01*
X199648496Y-67604912D02*
X199696115Y-67557292D01*
X199696115Y-67557292D02*
X199743734Y-67462054D01*
X199743734Y-67462054D02*
X199791353Y-67271578D01*
X199791353Y-67271578D02*
X199791353Y-67033483D01*
X199791353Y-67033483D02*
X199743734Y-66843007D01*
X199743734Y-66843007D02*
X199696115Y-66747769D01*
X199696115Y-66747769D02*
X199648496Y-66700150D01*
X199648496Y-66700150D02*
X199553258Y-66652531D01*
X198838972Y-66747769D02*
X198791353Y-66700150D01*
X198791353Y-66700150D02*
X198696115Y-66652531D01*
X198696115Y-66652531D02*
X198458020Y-66652531D01*
X198458020Y-66652531D02*
X198362782Y-66700150D01*
X198362782Y-66700150D02*
X198315163Y-66747769D01*
X198315163Y-66747769D02*
X198267544Y-66843007D01*
X198267544Y-66843007D02*
X198267544Y-66938245D01*
X198267544Y-66938245D02*
X198315163Y-67081102D01*
X198315163Y-67081102D02*
X198886591Y-67652531D01*
X198886591Y-67652531D02*
X198267544Y-67652531D01*
X197410401Y-66652531D02*
X197600877Y-66652531D01*
X197600877Y-66652531D02*
X197696115Y-66700150D01*
X197696115Y-66700150D02*
X197743734Y-66747769D01*
X197743734Y-66747769D02*
X197838972Y-66890626D01*
X197838972Y-66890626D02*
X197886591Y-67081102D01*
X197886591Y-67081102D02*
X197886591Y-67462054D01*
X197886591Y-67462054D02*
X197838972Y-67557292D01*
X197838972Y-67557292D02*
X197791353Y-67604912D01*
X197791353Y-67604912D02*
X197696115Y-67652531D01*
X197696115Y-67652531D02*
X197505639Y-67652531D01*
X197505639Y-67652531D02*
X197410401Y-67604912D01*
X197410401Y-67604912D02*
X197362782Y-67557292D01*
X197362782Y-67557292D02*
X197315163Y-67462054D01*
X197315163Y-67462054D02*
X197315163Y-67223959D01*
X197315163Y-67223959D02*
X197362782Y-67128721D01*
X197362782Y-67128721D02*
X197410401Y-67081102D01*
X197410401Y-67081102D02*
X197505639Y-67033483D01*
X197505639Y-67033483D02*
X197696115Y-67033483D01*
X197696115Y-67033483D02*
X197791353Y-67081102D01*
X197791353Y-67081102D02*
X197838972Y-67128721D01*
X197838972Y-67128721D02*
X197886591Y-67223959D01*
X200696115Y-70872419D02*
X200696115Y-69872419D01*
X200696115Y-69872419D02*
X200315163Y-69872419D01*
X200315163Y-69872419D02*
X200219925Y-69920038D01*
X200219925Y-69920038D02*
X200172306Y-69967657D01*
X200172306Y-69967657D02*
X200124687Y-70062895D01*
X200124687Y-70062895D02*
X200124687Y-70205752D01*
X200124687Y-70205752D02*
X200172306Y-70300990D01*
X200172306Y-70300990D02*
X200219925Y-70348609D01*
X200219925Y-70348609D02*
X200315163Y-70396228D01*
X200315163Y-70396228D02*
X200696115Y-70396228D01*
X199696115Y-70872419D02*
X199696115Y-69872419D01*
X199267544Y-70872419D02*
X199267544Y-70348609D01*
X199267544Y-70348609D02*
X199315163Y-70253371D01*
X199315163Y-70253371D02*
X199410401Y-70205752D01*
X199410401Y-70205752D02*
X199553258Y-70205752D01*
X199553258Y-70205752D02*
X199648496Y-70253371D01*
X199648496Y-70253371D02*
X199696115Y-70300990D01*
X198791353Y-70872419D02*
X198791353Y-70205752D01*
X198791353Y-69872419D02*
X198838972Y-69920038D01*
X198838972Y-69920038D02*
X198791353Y-69967657D01*
X198791353Y-69967657D02*
X198743734Y-69920038D01*
X198743734Y-69920038D02*
X198791353Y-69872419D01*
X198791353Y-69872419D02*
X198791353Y-69967657D01*
X198172306Y-70872419D02*
X198267544Y-70824800D01*
X198267544Y-70824800D02*
X198315163Y-70729561D01*
X198315163Y-70729561D02*
X198315163Y-69872419D01*
X197743734Y-69872419D02*
X197838972Y-70062895D01*
X197362782Y-70824800D02*
X197267544Y-70872419D01*
X197267544Y-70872419D02*
X197077068Y-70872419D01*
X197077068Y-70872419D02*
X196981830Y-70824800D01*
X196981830Y-70824800D02*
X196934211Y-70729561D01*
X196934211Y-70729561D02*
X196934211Y-70681942D01*
X196934211Y-70681942D02*
X196981830Y-70586704D01*
X196981830Y-70586704D02*
X197077068Y-70539085D01*
X197077068Y-70539085D02*
X197219925Y-70539085D01*
X197219925Y-70539085D02*
X197315163Y-70491466D01*
X197315163Y-70491466D02*
X197362782Y-70396228D01*
X197362782Y-70396228D02*
X197362782Y-70348609D01*
X197362782Y-70348609D02*
X197315163Y-70253371D01*
X197315163Y-70253371D02*
X197219925Y-70205752D01*
X197219925Y-70205752D02*
X197077068Y-70205752D01*
X197077068Y-70205752D02*
X196981830Y-70253371D01*
X195267544Y-70872419D02*
X195743734Y-70872419D01*
X195743734Y-70872419D02*
X195743734Y-69872419D01*
X194505639Y-70872419D02*
X194505639Y-70348609D01*
X194505639Y-70348609D02*
X194553258Y-70253371D01*
X194553258Y-70253371D02*
X194648496Y-70205752D01*
X194648496Y-70205752D02*
X194838972Y-70205752D01*
X194838972Y-70205752D02*
X194934210Y-70253371D01*
X194505639Y-70824800D02*
X194600877Y-70872419D01*
X194600877Y-70872419D02*
X194838972Y-70872419D01*
X194838972Y-70872419D02*
X194934210Y-70824800D01*
X194934210Y-70824800D02*
X194981829Y-70729561D01*
X194981829Y-70729561D02*
X194981829Y-70634323D01*
X194981829Y-70634323D02*
X194934210Y-70539085D01*
X194934210Y-70539085D02*
X194838972Y-70491466D01*
X194838972Y-70491466D02*
X194600877Y-70491466D01*
X194600877Y-70491466D02*
X194505639Y-70443847D01*
X194029448Y-70872419D02*
X194029448Y-69872419D01*
X194029448Y-70253371D02*
X193934210Y-70205752D01*
X193934210Y-70205752D02*
X193743734Y-70205752D01*
X193743734Y-70205752D02*
X193648496Y-70253371D01*
X193648496Y-70253371D02*
X193600877Y-70300990D01*
X193600877Y-70300990D02*
X193553258Y-70396228D01*
X193553258Y-70396228D02*
X193553258Y-70681942D01*
X193553258Y-70681942D02*
X193600877Y-70777180D01*
X193600877Y-70777180D02*
X193648496Y-70824800D01*
X193648496Y-70824800D02*
X193743734Y-70872419D01*
X193743734Y-70872419D02*
X193934210Y-70872419D01*
X193934210Y-70872419D02*
X194029448Y-70824800D01*
X192505638Y-69872419D02*
X191934210Y-69872419D01*
X192219924Y-70872419D02*
X192219924Y-69872419D01*
X191172305Y-70205752D02*
X191172305Y-70872419D01*
X191600876Y-70205752D02*
X191600876Y-70729561D01*
X191600876Y-70729561D02*
X191553257Y-70824800D01*
X191553257Y-70824800D02*
X191458019Y-70872419D01*
X191458019Y-70872419D02*
X191315162Y-70872419D01*
X191315162Y-70872419D02*
X191219924Y-70824800D01*
X191219924Y-70824800D02*
X191172305Y-70777180D01*
X190838971Y-70205752D02*
X190458019Y-70205752D01*
X190696114Y-69872419D02*
X190696114Y-70729561D01*
X190696114Y-70729561D02*
X190648495Y-70824800D01*
X190648495Y-70824800D02*
X190553257Y-70872419D01*
X190553257Y-70872419D02*
X190458019Y-70872419D01*
X189981828Y-70872419D02*
X190077066Y-70824800D01*
X190077066Y-70824800D02*
X190124685Y-70777180D01*
X190124685Y-70777180D02*
X190172304Y-70681942D01*
X190172304Y-70681942D02*
X190172304Y-70396228D01*
X190172304Y-70396228D02*
X190124685Y-70300990D01*
X190124685Y-70300990D02*
X190077066Y-70253371D01*
X190077066Y-70253371D02*
X189981828Y-70205752D01*
X189981828Y-70205752D02*
X189838971Y-70205752D01*
X189838971Y-70205752D02*
X189743733Y-70253371D01*
X189743733Y-70253371D02*
X189696114Y-70300990D01*
X189696114Y-70300990D02*
X189648495Y-70396228D01*
X189648495Y-70396228D02*
X189648495Y-70681942D01*
X189648495Y-70681942D02*
X189696114Y-70777180D01*
X189696114Y-70777180D02*
X189743733Y-70824800D01*
X189743733Y-70824800D02*
X189838971Y-70872419D01*
X189838971Y-70872419D02*
X189981828Y-70872419D01*
X189219923Y-70872419D02*
X189219923Y-70205752D01*
X189219923Y-70396228D02*
X189172304Y-70300990D01*
X189172304Y-70300990D02*
X189124685Y-70253371D01*
X189124685Y-70253371D02*
X189029447Y-70205752D01*
X189029447Y-70205752D02*
X188934209Y-70205752D01*
X188600875Y-70872419D02*
X188600875Y-70205752D01*
X188600875Y-69872419D02*
X188648494Y-69920038D01*
X188648494Y-69920038D02*
X188600875Y-69967657D01*
X188600875Y-69967657D02*
X188553256Y-69920038D01*
X188553256Y-69920038D02*
X188600875Y-69872419D01*
X188600875Y-69872419D02*
X188600875Y-69967657D01*
X187696114Y-70872419D02*
X187696114Y-70348609D01*
X187696114Y-70348609D02*
X187743733Y-70253371D01*
X187743733Y-70253371D02*
X187838971Y-70205752D01*
X187838971Y-70205752D02*
X188029447Y-70205752D01*
X188029447Y-70205752D02*
X188124685Y-70253371D01*
X187696114Y-70824800D02*
X187791352Y-70872419D01*
X187791352Y-70872419D02*
X188029447Y-70872419D01*
X188029447Y-70872419D02*
X188124685Y-70824800D01*
X188124685Y-70824800D02*
X188172304Y-70729561D01*
X188172304Y-70729561D02*
X188172304Y-70634323D01*
X188172304Y-70634323D02*
X188124685Y-70539085D01*
X188124685Y-70539085D02*
X188029447Y-70491466D01*
X188029447Y-70491466D02*
X187791352Y-70491466D01*
X187791352Y-70491466D02*
X187696114Y-70443847D01*
X187077066Y-70872419D02*
X187172304Y-70824800D01*
X187172304Y-70824800D02*
X187219923Y-70729561D01*
X187219923Y-70729561D02*
X187219923Y-69872419D01*
M02*
