%TF.GenerationSoftware,KiCad,Pcbnew,10.0.1*%
%TF.CreationDate,2026-04-28T10:00:37-06:00*%
%TF.ProjectId,Phil's_Lab_Tutorial,5068696c-2773-45f4-9c61-625f5475746f,rev?*%
%TF.SameCoordinates,Original*%
%TF.FileFunction,Copper,L1,Top*%
%TF.FilePolarity,Positive*%
%FSLAX46Y46*%
G04 Gerber Fmt 4.6, Leading zero omitted, Abs format (unit mm)*
G04 Created by KiCad (PCBNEW 10.0.1) date 2026-04-28 10:00:37*
%MOMM*%
%LPD*%
G01*
G04 APERTURE LIST*
G04 Aperture macros list*
%AMRoundRect*
0 Rectangle with rounded corners*
0 $1 Rounding radius*
0 $2 $3 $4 $5 $6 $7 $8 $9 X,Y pos of 4 corners*
0 Add a 4 corners polygon primitive as box body*
4,1,4,$2,$3,$4,$5,$6,$7,$8,$9,$2,$3,0*
0 Add four circle primitives for the rounded corners*
1,1,$1+$1,$2,$3*
1,1,$1+$1,$4,$5*
1,1,$1+$1,$6,$7*
1,1,$1+$1,$8,$9*
0 Add four rect primitives between the rounded corners*
20,1,$1+$1,$2,$3,$4,$5,0*
20,1,$1+$1,$4,$5,$6,$7,0*
20,1,$1+$1,$6,$7,$8,$9,0*
20,1,$1+$1,$8,$9,$2,$3,0*%
G04 Aperture macros list end*
%TA.AperFunction,SMDPad,CuDef*%
%ADD10RoundRect,0.140000X-0.140000X-0.170000X0.140000X-0.170000X0.140000X0.170000X-0.140000X0.170000X0*%
%TD*%
%TA.AperFunction,SMDPad,CuDef*%
%ADD11RoundRect,0.140000X-0.170000X0.140000X-0.170000X-0.140000X0.170000X-0.140000X0.170000X0.140000X0*%
%TD*%
%TA.AperFunction,SMDPad,CuDef*%
%ADD12RoundRect,0.225000X0.250000X-0.225000X0.250000X0.225000X-0.250000X0.225000X-0.250000X-0.225000X0*%
%TD*%
%TA.AperFunction,SMDPad,CuDef*%
%ADD13RoundRect,0.140000X0.170000X-0.140000X0.170000X0.140000X-0.170000X0.140000X-0.170000X-0.140000X0*%
%TD*%
%TA.AperFunction,SMDPad,CuDef*%
%ADD14RoundRect,0.075000X-0.075000X-0.662500X0.075000X-0.662500X0.075000X0.662500X-0.075000X0.662500X0*%
%TD*%
%TA.AperFunction,SMDPad,CuDef*%
%ADD15RoundRect,0.075000X-0.662500X-0.075000X0.662500X-0.075000X0.662500X0.075000X-0.662500X0.075000X0*%
%TD*%
%TA.AperFunction,SMDPad,CuDef*%
%ADD16RoundRect,0.250000X-0.350000X0.450000X-0.350000X-0.450000X0.350000X-0.450000X0.350000X0.450000X0*%
%TD*%
%TA.AperFunction,SMDPad,CuDef*%
%ADD17RoundRect,0.250000X-0.450000X-0.250000X0.450000X-0.250000X0.450000X0.250000X-0.450000X0.250000X0*%
%TD*%
%TA.AperFunction,SMDPad,CuDef*%
%ADD18RoundRect,0.375000X-0.375000X0.625000X-0.375000X-0.625000X0.375000X-0.625000X0.375000X0.625000X0*%
%TD*%
%TA.AperFunction,SMDPad,CuDef*%
%ADD19RoundRect,0.500000X-1.400000X0.500000X-1.400000X-0.500000X1.400000X-0.500000X1.400000X0.500000X0*%
%TD*%
%TA.AperFunction,SMDPad,CuDef*%
%ADD20RoundRect,0.135000X0.185000X-0.135000X0.185000X0.135000X-0.185000X0.135000X-0.185000X-0.135000X0*%
%TD*%
%TA.AperFunction,SMDPad,CuDef*%
%ADD21RoundRect,0.135000X-0.135000X-0.185000X0.135000X-0.185000X0.135000X0.185000X-0.135000X0.185000X0*%
%TD*%
%TA.AperFunction,SMDPad,CuDef*%
%ADD22RoundRect,0.225000X-0.225000X-0.250000X0.225000X-0.250000X0.225000X0.250000X-0.225000X0.250000X0*%
%TD*%
%TA.AperFunction,ComponentPad*%
%ADD23C,1.700000*%
%TD*%
%TA.AperFunction,ComponentPad*%
%ADD24R,1.700000X1.700000*%
%TD*%
%TA.AperFunction,SMDPad,CuDef*%
%ADD25RoundRect,0.135000X0.135000X0.185000X-0.135000X0.185000X-0.135000X-0.185000X0.135000X-0.185000X0*%
%TD*%
%TA.AperFunction,SMDPad,CuDef*%
%ADD26RoundRect,0.218750X-0.218750X-0.256250X0.218750X-0.256250X0.218750X0.256250X-0.218750X0.256250X0*%
%TD*%
%TA.AperFunction,SMDPad,CuDef*%
%ADD27RoundRect,0.250000X-0.250000X-0.475000X0.250000X-0.475000X0.250000X0.475000X-0.250000X0.475000X0*%
%TD*%
%TA.AperFunction,SMDPad,CuDef*%
%ADD28RoundRect,0.250000X0.250000X0.475000X-0.250000X0.475000X-0.250000X-0.475000X0.250000X-0.475000X0*%
%TD*%
%TA.AperFunction,ComponentPad*%
%ADD29O,1.100000X1.600000*%
%TD*%
%TA.AperFunction,SMDPad,CuDef*%
%ADD30RoundRect,0.100000X0.550000X-0.100000X0.550000X0.100000X-0.550000X0.100000X-0.550000X-0.100000X0*%
%TD*%
%TA.AperFunction,ViaPad*%
%ADD31C,0.600000*%
%TD*%
%TA.AperFunction,Conductor*%
%ADD32C,0.300000*%
%TD*%
%TA.AperFunction,Conductor*%
%ADD33C,0.200000*%
%TD*%
G04 APERTURE END LIST*
D10*
%TO.P,C8,2*%
%TO.N,GND*%
X181000000Y-79500000D03*
%TO.P,C8,1*%
%TO.N,+3.3V*%
X180040000Y-79500000D03*
%TD*%
D11*
%TO.P,C9,2*%
%TO.N,GND*%
X170200000Y-79480000D03*
%TO.P,C9,1*%
%TO.N,/NRST*%
X170200000Y-78520000D03*
%TD*%
D12*
%TO.P,C5,2*%
%TO.N,GND*%
X180400000Y-65825000D03*
%TO.P,C5,1*%
%TO.N,+3.3V*%
X180400000Y-67375000D03*
%TD*%
D13*
%TO.P,C4,2*%
%TO.N,GND*%
X174600000Y-66800000D03*
%TO.P,C4,1*%
%TO.N,+3.3V*%
X174600000Y-67760000D03*
%TD*%
D14*
%TO.P,U2,48,VDD_48*%
%TO.N,+3.3V*%
X174542000Y-69497500D03*
%TO.P,U2,47,VSS_47*%
%TO.N,GND*%
X175042000Y-69497500D03*
%TO.P,U2,46,PB9_46*%
%TO.N,unconnected-(U2-PB9-Pad46)*%
X175542000Y-69497500D03*
%TO.P,U2,45,PB8_45*%
%TO.N,unconnected-(U2-PB8-Pad45)*%
X176042000Y-69497500D03*
%TO.P,U2,44,BOOT0_44*%
%TO.N,Net-(U2-BOOT0)*%
X176542000Y-69497500D03*
%TO.P,U2,43,PB7_43*%
%TO.N,/USART1_RX*%
X177042000Y-69497500D03*
%TO.P,U2,42,PB6_42*%
%TO.N,/USART1_TX*%
X177542000Y-69497500D03*
%TO.P,U2,41,PB5_41*%
%TO.N,unconnected-(U2-PB5-Pad41)*%
X178042000Y-69497500D03*
%TO.P,U2,40,PB4_40*%
%TO.N,unconnected-(U2-PB4-Pad40)*%
X178542000Y-69497500D03*
%TO.P,U2,39,PB3_39*%
%TO.N,unconnected-(U2-PB3-Pad39)*%
X179042000Y-69497500D03*
%TO.P,U2,38,PA15_38*%
%TO.N,unconnected-(U2-PA15-Pad38)*%
X179542000Y-69497500D03*
%TO.P,U2,37,PA14_37*%
%TO.N,/SWCLK*%
X180042000Y-69497500D03*
D15*
%TO.P,U2,36,VDD_36*%
%TO.N,+3.3V*%
X181454500Y-70910000D03*
%TO.P,U2,35,VSS_35*%
%TO.N,GND*%
X181454500Y-71410000D03*
%TO.P,U2,34,PA13_34*%
%TO.N,/SWDIO*%
X181454500Y-71910000D03*
%TO.P,U2,33,PA12_33*%
%TO.N,/USB_D+*%
X181454500Y-72410000D03*
%TO.P,U2,32,PA11_32*%
%TO.N,/USB_D-*%
X181454500Y-72910000D03*
%TO.P,U2,31,PA10_31*%
%TO.N,unconnected-(U2-PA10-Pad31)*%
X181454500Y-73410000D03*
%TO.P,U2,30,PA9_30*%
%TO.N,unconnected-(U2-PA9-Pad30)*%
X181454500Y-73910000D03*
%TO.P,U2,29,PA8_29*%
%TO.N,unconnected-(U2-PA8-Pad29)*%
X181454500Y-74410000D03*
%TO.P,U2,28,PB15_28*%
%TO.N,unconnected-(U2-PB15-Pad28)*%
X181454500Y-74910000D03*
%TO.P,U2,27,PB14_27*%
%TO.N,unconnected-(U2-PB14-Pad27)*%
X181454500Y-75410000D03*
%TO.P,U2,26,PB13_26*%
%TO.N,unconnected-(U2-PB13-Pad26)*%
X181454500Y-75910000D03*
%TO.P,U2,25,PB12_25*%
%TO.N,unconnected-(U2-PB12-Pad25)*%
X181454500Y-76410000D03*
D14*
%TO.P,U2,24,VDD_24*%
%TO.N,+3.3V*%
X180042000Y-77822500D03*
%TO.P,U2,23,VSS_23*%
%TO.N,GND*%
X179542000Y-77822500D03*
%TO.P,U2,22,PB11_22*%
%TO.N,/I2C2_SDA*%
X179042000Y-77822500D03*
%TO.P,U2,21,PB10_21*%
%TO.N,/I2C2_SCL*%
X178542000Y-77822500D03*
%TO.P,U2,20,PB2_20*%
%TO.N,unconnected-(U2-PB2-Pad20)*%
X178042000Y-77822500D03*
%TO.P,U2,19,PB1_19*%
%TO.N,unconnected-(U2-PB1-Pad19)*%
X177542000Y-77822500D03*
%TO.P,U2,18,PB0_18*%
%TO.N,unconnected-(U2-PB0-Pad18)*%
X177042000Y-77822500D03*
%TO.P,U2,17,PA7_17*%
%TO.N,unconnected-(U2-PA7-Pad17)*%
X176542000Y-77822500D03*
%TO.P,U2,16,PA6_16*%
%TO.N,unconnected-(U2-PA6-Pad16)*%
X176042000Y-77822500D03*
%TO.P,U2,15,PA5_15*%
%TO.N,unconnected-(U2-PA5-Pad15)*%
X175542000Y-77822500D03*
%TO.P,U2,14,PA4_14*%
%TO.N,unconnected-(U2-PA4-Pad14)*%
X175042000Y-77822500D03*
%TO.P,U2,13,PA3_13*%
%TO.N,unconnected-(U2-PA3-Pad13)*%
X174542000Y-77822500D03*
D15*
%TO.P,U2,12,PA2_12*%
%TO.N,unconnected-(U2-PA2-Pad12)*%
X173129500Y-76410000D03*
%TO.P,U2,11,PA1_11*%
%TO.N,unconnected-(U2-PA1-Pad11)*%
X173129500Y-75910000D03*
%TO.P,U2,10,PA0_10*%
%TO.N,unconnected-(U2-PA0-Pad10)*%
X173129500Y-75410000D03*
%TO.P,U2,9,VDDA_9*%
%TO.N,+3.3VA*%
X173129500Y-74910000D03*
%TO.P,U2,8,VSSA_8*%
%TO.N,GND*%
X173129500Y-74410000D03*
%TO.P,U2,7,NRST_7*%
%TO.N,/NRST*%
X173129500Y-73910000D03*
%TO.P,U2,6,PD1_6*%
%TO.N,/HSE_OUT*%
X173129500Y-73410000D03*
%TO.P,U2,5,PD0_5*%
%TO.N,/HSE_IN*%
X173129500Y-72910000D03*
%TO.P,U2,4,PC15_4*%
%TO.N,unconnected-(U2-PC15-Pad4)*%
X173129500Y-72410000D03*
%TO.P,U2,3,PC14_3*%
%TO.N,unconnected-(U2-PC14-Pad3)*%
X173129500Y-71910000D03*
%TO.P,U2,2,PC13_2*%
%TO.N,unconnected-(U2-PC13-Pad2)*%
X173129500Y-71410000D03*
%TO.P,U2,1,VBAT_1*%
%TO.N,+3.3V*%
X173129500Y-70910000D03*
%TD*%
D16*
%TO.P,Y1,4,G_4*%
%TO.N,GND*%
X169000000Y-73000000D03*
%TO.P,Y1,3,3_3*%
%TO.N,/HSE_OUT*%
X169000000Y-75200000D03*
%TO.P,Y1,2,G_2*%
%TO.N,GND*%
X167300000Y-75200000D03*
%TO.P,Y1,1,1_1*%
%TO.N,/HSE_IN*%
X167300000Y-73000000D03*
%TD*%
D17*
%TO.P,SW1,3,C_3*%
%TO.N,GND*%
X170400000Y-66600000D03*
%TO.P,SW1,2,B_2*%
%TO.N,Net-(SW1-B)*%
X168200000Y-67550000D03*
%TO.P,SW1,1,A_1*%
%TO.N,+3.3V*%
X168200000Y-65650000D03*
%TD*%
D18*
%TO.P,U1,3,VI_3*%
%TO.N,VBUS*%
X188700000Y-84650000D03*
D19*
%TO.P,U1,2,VO_2*%
%TO.N,+3.3V*%
X191000000Y-90950000D03*
D18*
X191000000Y-84650000D03*
%TO.P,U1,1,GND_1*%
%TO.N,GND*%
X193300000Y-84650000D03*
%TD*%
D20*
%TO.P,R2,1*%
%TO.N,/USB_D+*%
X190500000Y-71510000D03*
%TO.P,R2,2*%
%TO.N,+3.3V*%
X190500000Y-70490000D03*
%TD*%
D21*
%TO.P,R3,2*%
%TO.N,/PWR_LED_K*%
X197422500Y-81970000D03*
%TO.P,R3,1*%
%TO.N,GND*%
X196402500Y-81970000D03*
%TD*%
D22*
%TO.P,C6,2*%
%TO.N,GND*%
X173787500Y-81490000D03*
%TO.P,C6,1*%
%TO.N,+3.3VA*%
X172237500Y-81490000D03*
%TD*%
D10*
%TO.P,C3,2*%
%TO.N,GND*%
X182852000Y-77724000D03*
%TO.P,C3,1*%
%TO.N,+3.3V*%
X181892000Y-77724000D03*
%TD*%
%TO.P,C2,2*%
%TO.N,GND*%
X182852000Y-69596000D03*
%TO.P,C2,1*%
%TO.N,+3.3V*%
X181892000Y-69596000D03*
%TD*%
D23*
%TO.P,J4,4,Pin_4_4*%
%TO.N,GND*%
X173000000Y-63000000D03*
%TO.P,J4,3,Pin_3_3*%
%TO.N,/USART1_RX*%
X175540000Y-63000000D03*
%TO.P,J4,2,Pin_2_2*%
%TO.N,/USART1_TX*%
X178080000Y-63000000D03*
D24*
%TO.P,J4,1,Pin_1_1*%
%TO.N,+3.3V*%
X180620000Y-63000000D03*
%TD*%
D25*
%TO.P,R1,2*%
%TO.N,Net-(U2-BOOT0)*%
X167980000Y-70000000D03*
%TO.P,R1,1*%
%TO.N,Net-(SW1-B)*%
X169000000Y-70000000D03*
%TD*%
D23*
%TO.P,J3,4,Pin_4_4*%
%TO.N,GND*%
X180820000Y-87200000D03*
%TO.P,J3,3,Pin_3_3*%
%TO.N,/I2C2_SDA*%
X178280000Y-87200000D03*
%TO.P,J3,2,Pin_2_2*%
%TO.N,/I2C2_SCL*%
X175740000Y-87200000D03*
D24*
%TO.P,J3,1,Pin_1_1*%
%TO.N,+3.3V*%
X173200000Y-87200000D03*
%TD*%
D26*
%TO.P,D1,2,A_2*%
%TO.N,+3.3V*%
X197400000Y-84200000D03*
%TO.P,D1,1,K_1*%
%TO.N,/PWR_LED_K*%
X195825000Y-84200000D03*
%TD*%
D10*
%TO.P,C7,2*%
%TO.N,GND*%
X173080000Y-79600000D03*
%TO.P,C7,1*%
%TO.N,+3.3VA*%
X172120000Y-79600000D03*
%TD*%
D27*
%TO.P,C13,2*%
%TO.N,GND*%
X194182500Y-81510000D03*
%TO.P,C13,1*%
%TO.N,+3.3V*%
X192282500Y-81510000D03*
%TD*%
D28*
%TO.P,C12,2*%
%TO.N,GND*%
X186850000Y-81600000D03*
%TO.P,C12,1*%
%TO.N,VBUS*%
X188750000Y-81600000D03*
%TD*%
D11*
%TO.P,C10,2*%
%TO.N,GND*%
X170800000Y-73080000D03*
%TO.P,C10,1*%
%TO.N,/HSE_IN*%
X170800000Y-72120000D03*
%TD*%
%TO.P,C11,2*%
%TO.N,GND*%
X170600000Y-76200000D03*
%TO.P,C11,1*%
%TO.N,/HSE_OUT*%
X170600000Y-75240000D03*
%TD*%
D26*
%TO.P,FB1,2*%
%TO.N,+3.3V*%
X173800000Y-84000000D03*
%TO.P,FB1,1*%
%TO.N,+3.3VA*%
X172225000Y-84000000D03*
%TD*%
D23*
%TO.P,J2,4,Pin_4_4*%
%TO.N,GND*%
X184980000Y-63400000D03*
%TO.P,J2,3,Pin_3_3*%
%TO.N,/SWCLK*%
X187520000Y-63400000D03*
%TO.P,J2,2,Pin_2_2*%
%TO.N,/SWDIO*%
X190060000Y-63400000D03*
D24*
%TO.P,J2,1,Pin_1_1*%
%TO.N,+3.3V*%
X192600000Y-63400000D03*
%TD*%
D29*
%TO.P,J1,SH,Shield_SH*%
%TO.N,unconnected-(J1-Shield-PadSH)_1*%
X194300000Y-70950000D03*
%TO.N,unconnected-(J1-Shield-PadSH)*%
X194300000Y-76050000D03*
D30*
%TO.P,J1,5,GND_5*%
%TO.N,GND*%
X194250000Y-72200000D03*
%TO.P,J1,4,ID_4*%
%TO.N,unconnected-(J1-ID-Pad4)*%
X194250000Y-72850000D03*
%TO.P,J1,3,D+_3*%
%TO.N,/USB_D+*%
X194250000Y-73500000D03*
%TO.P,J1,2,D-_2*%
%TO.N,/USB_D-*%
X194250000Y-74150000D03*
%TO.P,J1,1,VBUS_1*%
%TO.N,VBUS*%
X194250000Y-74800000D03*
%TD*%
D13*
%TO.P,C1,2*%
%TO.N,GND*%
X172720000Y-68608000D03*
%TO.P,C1,1*%
%TO.N,+3.3V*%
X172720000Y-69568000D03*
%TD*%
D31*
%TO.N,GND*%
X195500000Y-81500000D03*
X193200000Y-72200000D03*
%TO.N,Net-(U2-BOOT0)*%
X171500000Y-71000000D03*
X174500000Y-71000000D03*
%TO.N,/SWCLK*%
X180225000Y-64875000D03*
X178925000Y-65000000D03*
%TO.N,GND*%
X172250000Y-65750000D03*
X179542000Y-76770648D03*
X183000000Y-87000000D03*
%TD*%
%TO.N,+3.3V*%
D32*
X173800000Y-84000000D02*
X173800000Y-86600000D01*
X173800000Y-86600000D02*
X173200000Y-87200000D01*
%TO.N,/HSE_IN*%
X167300000Y-73000000D02*
X168350000Y-71950000D01*
X168350000Y-71950000D02*
X170630000Y-71950000D01*
X170630000Y-71950000D02*
X170800000Y-72120000D01*
%TO.N,+3.3V*%
X197400000Y-84200000D02*
X197400000Y-84550000D01*
X197400000Y-84550000D02*
X191000000Y-90950000D01*
%TO.N,/PWR_LED_K*%
X197422500Y-81970000D02*
X197422500Y-82602500D01*
X197422500Y-82602500D02*
X195825000Y-84200000D01*
%TO.N,GND*%
X195490000Y-81510000D02*
X195500000Y-81500000D01*
X195970000Y-81970000D02*
X195500000Y-81500000D01*
X195490000Y-81510000D02*
X194182500Y-81510000D01*
X196402500Y-81970000D02*
X195970000Y-81970000D01*
X193300000Y-84650000D02*
X193300000Y-82392500D01*
X193300000Y-82392500D02*
X194182500Y-81510000D01*
%TO.N,VBUS*%
X188700000Y-84650000D02*
X188700000Y-81650000D01*
X188700000Y-81650000D02*
X188750000Y-81600000D01*
X194250000Y-74800000D02*
X193600001Y-74800000D01*
X193600001Y-74800000D02*
X188750000Y-79650001D01*
X188750000Y-79650001D02*
X188750000Y-81600000D01*
%TO.N,GND*%
X194250000Y-72200000D02*
X193200000Y-72200000D01*
X193000000Y-72000000D02*
X193200000Y-72200000D01*
%TO.N,+3.3V*%
X168200000Y-65650000D02*
X168200000Y-65955456D01*
X168200000Y-65955456D02*
X171812544Y-69568000D01*
X171812544Y-69568000D02*
X172720000Y-69568000D01*
%TO.N,Net-(U2-BOOT0)*%
X176542000Y-69497500D02*
X176542000Y-70338120D01*
X176542000Y-70338120D02*
X175880120Y-71000000D01*
X175880120Y-71000000D02*
X174500000Y-71000000D01*
X167980000Y-70000000D02*
X168650000Y-70670000D01*
X168650000Y-70670000D02*
X171170000Y-70670000D01*
X171170000Y-70670000D02*
X171500000Y-71000000D01*
%TO.N,Net-(SW1-B)*%
X168200000Y-67550000D02*
X168200000Y-69200000D01*
X168200000Y-69200000D02*
X169000000Y-70000000D01*
%TO.N,/SWCLK*%
X178925000Y-65000000D02*
X178925000Y-67539880D01*
X178925000Y-67539880D02*
X180042000Y-68656880D01*
X180042000Y-68656880D02*
X180042000Y-69497500D01*
X187520000Y-63400000D02*
X185920000Y-65000000D01*
X185920000Y-65000000D02*
X180350000Y-65000000D01*
X180350000Y-65000000D02*
X180225000Y-64875000D01*
%TO.N,+3.3V*%
X192600000Y-63400000D02*
X191400000Y-62200000D01*
X191400000Y-62200000D02*
X181420000Y-62200000D01*
X181420000Y-62200000D02*
X180620000Y-63000000D01*
X180620000Y-63000000D02*
X179575000Y-64045000D01*
X179575000Y-64045000D02*
X179575000Y-66550000D01*
X179575000Y-66550000D02*
X180400000Y-67375000D01*
%TO.N,/USART1_TX*%
X178080000Y-63000000D02*
X177542000Y-63538000D01*
X177542000Y-63538000D02*
X177542000Y-69497500D01*
%TO.N,/USART1_RX*%
X175540000Y-63000000D02*
X177042000Y-64502000D01*
X177042000Y-64502000D02*
X177042000Y-69497500D01*
%TO.N,GND*%
X172500000Y-65500000D02*
X173000000Y-65000000D01*
X172500000Y-65500000D02*
X172250000Y-65750000D01*
X170400000Y-66600000D02*
X171400000Y-66600000D01*
X171400000Y-66600000D02*
X172500000Y-65500000D01*
X173000000Y-65000000D02*
X173000000Y-63000000D01*
X179542000Y-77822500D02*
X179542000Y-76770648D01*
X182800000Y-87200000D02*
X183000000Y-87000000D01*
X180820000Y-87200000D02*
X182800000Y-87200000D01*
%TO.N,+3.3V*%
X173200000Y-87200000D02*
X176950000Y-90950000D01*
X176950000Y-90950000D02*
X191000000Y-90950000D01*
%TO.N,/I2C2_SCL*%
X175740000Y-87200000D02*
X178542000Y-84398000D01*
X178542000Y-84398000D02*
X178542000Y-77822500D01*
%TO.N,/I2C2_SDA*%
X178280000Y-87200000D02*
X179042000Y-86438000D01*
X179042000Y-86438000D02*
X179042000Y-77822500D01*
%TO.N,/SWDIO*%
X181454500Y-71910000D02*
X182590000Y-71910000D01*
X182590000Y-71910000D02*
X190060000Y-64440000D01*
X190060000Y-64440000D02*
X190060000Y-63400000D01*
%TO.N,+3.3V*%
X190500000Y-70490000D02*
X190500000Y-65500000D01*
X190500000Y-65500000D02*
X192600000Y-63400000D01*
%TO.N,/USB_D+*%
X194250000Y-73500000D02*
X190500000Y-73500000D01*
X190500000Y-71510000D02*
X190500000Y-73500000D01*
%TO.N,/USB_D-*%
D33*
X181454500Y-72910000D02*
X182560751Y-72910000D01*
X182560751Y-72910000D02*
X182585751Y-72885000D01*
X187066802Y-72885000D02*
X188472703Y-74290901D01*
X188472703Y-74290901D02*
X194109099Y-74290901D01*
X182585751Y-72885000D02*
X187066802Y-72885000D01*
X194109099Y-74290901D02*
X194250000Y-74150000D01*
%TO.N,/USB_D+*%
D32*
X190500000Y-73500000D02*
X189000000Y-73500000D01*
X189000000Y-73500000D02*
X188659099Y-73840901D01*
D33*
X182585751Y-72435000D02*
X187253198Y-72435000D01*
X187253198Y-72435000D02*
X188659099Y-73840901D01*
X181454500Y-72410000D02*
X182560751Y-72410000D01*
X182560751Y-72410000D02*
X182585751Y-72435000D01*
%TO.N,+3.3VA*%
D32*
X172225000Y-84000000D02*
X172225000Y-81502500D01*
X172225000Y-81502500D02*
X172237500Y-81490000D01*
X172237500Y-81490000D02*
X172237500Y-79717500D01*
X172237500Y-79717500D02*
X172120000Y-79600000D01*
%TO.N,GND*%
X170200000Y-79480000D02*
X169980000Y-79480000D01*
X168350000Y-77850000D02*
X168350000Y-76250000D01*
X169980000Y-79480000D02*
X168350000Y-77850000D01*
X167300000Y-75200000D02*
X167300000Y-74700000D01*
X167300000Y-74700000D02*
X169000000Y-73000000D01*
X170600000Y-76200000D02*
X170550000Y-76250000D01*
X170550000Y-76250000D02*
X168350000Y-76250000D01*
X168350000Y-76250000D02*
X167300000Y-75200000D01*
X170800000Y-73080000D02*
X169080000Y-73080000D01*
X169080000Y-73080000D02*
X169000000Y-73000000D01*
%TO.N,/HSE_IN*%
X170800000Y-72120000D02*
X171498880Y-72120000D01*
X171498880Y-72120000D02*
X172288880Y-72910000D01*
X172288880Y-72910000D02*
X173129500Y-72910000D01*
%TO.N,/HSE_OUT*%
X170600000Y-75240000D02*
X170600000Y-74891774D01*
X170600000Y-74891774D02*
X172081774Y-73410000D01*
X172081774Y-73410000D02*
X173129500Y-73410000D01*
%TO.N,/NRST*%
X170200000Y-78520000D02*
X171542000Y-77178000D01*
X172288880Y-73910000D02*
X173129500Y-73910000D01*
X171542000Y-77178000D02*
X171542000Y-74656880D01*
X171542000Y-74656880D02*
X172288880Y-73910000D01*
%TO.N,GND*%
X173080000Y-79600000D02*
X173080000Y-80782500D01*
X173080000Y-80782500D02*
X173787500Y-81490000D01*
%TO.N,+3.3VA*%
X172120000Y-79600000D02*
X172042000Y-79522000D01*
X172042000Y-79522000D02*
X172042000Y-75156880D01*
X172288880Y-74910000D02*
X173129500Y-74910000D01*
X172042000Y-75156880D02*
X172288880Y-74910000D01*
%TO.N,+3.3V*%
X191000000Y-84650000D02*
X191000000Y-82792500D01*
X191000000Y-82792500D02*
X192282500Y-81510000D01*
X191000000Y-90950000D02*
X191000000Y-84650000D01*
%TO.N,GND*%
X181000000Y-79500000D02*
X181279999Y-79500000D01*
X181279999Y-79500000D02*
X182852000Y-77927999D01*
X182852000Y-77927999D02*
X182852000Y-77724000D01*
%TO.N,+3.3V*%
X180042000Y-77822500D02*
X180042000Y-79498000D01*
X180042000Y-79498000D02*
X180040000Y-79500000D01*
X180160000Y-77940500D02*
X180042000Y-77822500D01*
%TO.N,GND*%
X182852000Y-77724000D02*
X182974000Y-77724000D01*
X182974000Y-77724000D02*
X186850000Y-81600000D01*
%TO.N,+3.3V*%
X181892000Y-77724000D02*
X180140500Y-77724000D01*
X180140500Y-77724000D02*
X180042000Y-77822500D01*
%TO.N,GND*%
X182852000Y-69596000D02*
X182852000Y-70853120D01*
X182852000Y-70853120D02*
X182295120Y-71410000D01*
X182295120Y-71410000D02*
X181454500Y-71410000D01*
X182852000Y-69596000D02*
X182852000Y-68277000D01*
X182852000Y-68277000D02*
X180400000Y-65825000D01*
%TO.N,+3.3V*%
X181454500Y-70910000D02*
X181454500Y-70033500D01*
X181454500Y-70033500D02*
X181892000Y-69596000D01*
X180400000Y-67375000D02*
X180400000Y-68104000D01*
X180400000Y-68104000D02*
X181892000Y-69596000D01*
%TO.N,GND*%
X172720000Y-68608000D02*
X174528000Y-66800000D01*
X174528000Y-66800000D02*
X174600000Y-66800000D01*
%TO.N,+3.3V*%
X172720000Y-69568000D02*
X172720000Y-70500500D01*
X172720000Y-70500500D02*
X173129500Y-70910000D01*
%TO.N,GND*%
X174600000Y-66800000D02*
X174909999Y-66800000D01*
X174909999Y-66800000D02*
X175288880Y-67178881D01*
X175288880Y-67178881D02*
X175288880Y-68410000D01*
X175288880Y-68410000D02*
X175042000Y-68656880D01*
X175042000Y-68656880D02*
X175042000Y-69497500D01*
%TO.N,+3.3V*%
X174600000Y-67760000D02*
X174542000Y-67818000D01*
X174542000Y-67818000D02*
X174542000Y-69497500D01*
%TD*%
%TA.AperFunction,Conductor*%
%TO.N,GND*%
G36*
X172534075Y-63192993D02*
G01*
X172599901Y-63307007D01*
X172692993Y-63400099D01*
X172807007Y-63465925D01*
X172870590Y-63482962D01*
X172238282Y-64115269D01*
X172238282Y-64115270D01*
X172292449Y-64154624D01*
X172481782Y-64251095D01*
X172683870Y-64316757D01*
X172893754Y-64350000D01*
X173106246Y-64350000D01*
X173316127Y-64316757D01*
X173316130Y-64316757D01*
X173518217Y-64251095D01*
X173707554Y-64154622D01*
X173761716Y-64115270D01*
X173761717Y-64115270D01*
X173129408Y-63482962D01*
X173192993Y-63465925D01*
X173307007Y-63400099D01*
X173400099Y-63307007D01*
X173465925Y-63192993D01*
X173482962Y-63129409D01*
X174115270Y-63761717D01*
X174115270Y-63761716D01*
X174154627Y-63707547D01*
X174157168Y-63703402D01*
X174159210Y-63704653D01*
X174200353Y-63660987D01*
X174268154Y-63644111D01*
X174334315Y-63666569D01*
X174377832Y-63721232D01*
X174385208Y-63747051D01*
X174598217Y-64989599D01*
X174600000Y-65010551D01*
X174600000Y-65896000D01*
X174580315Y-65963039D01*
X174527511Y-66008794D01*
X174476001Y-66020000D01*
X174365374Y-66020000D01*
X174365352Y-66020001D01*
X174329089Y-66022854D01*
X174173803Y-66067969D01*
X174034625Y-66150278D01*
X174034616Y-66150285D01*
X173920285Y-66264616D01*
X173920278Y-66264625D01*
X173837968Y-66403804D01*
X173795496Y-66550000D01*
X174476000Y-66550000D01*
X174484685Y-66552550D01*
X174493647Y-66551262D01*
X174517687Y-66562240D01*
X174543039Y-66569685D01*
X174548966Y-66576525D01*
X174557203Y-66580287D01*
X174571492Y-66602521D01*
X174588794Y-66622489D01*
X174591081Y-66633003D01*
X174594977Y-66639065D01*
X174600000Y-66674000D01*
X174600000Y-66855500D01*
X174580315Y-66922539D01*
X174527511Y-66968294D01*
X174476000Y-66979500D01*
X174365302Y-66979500D01*
X174329008Y-66982356D01*
X174329002Y-66982357D01*
X174173610Y-67027503D01*
X174173605Y-67027506D01*
X174164766Y-67032732D01*
X174101648Y-67050000D01*
X173795496Y-67050000D01*
X173837968Y-67196194D01*
X173849911Y-67216389D01*
X173867092Y-67284113D01*
X173849911Y-67342628D01*
X173837506Y-67363604D01*
X173837504Y-67363609D01*
X173792357Y-67519002D01*
X173792356Y-67519008D01*
X173789500Y-67555302D01*
X173789500Y-67885114D01*
X173788996Y-67886827D01*
X173789452Y-67888554D01*
X173779192Y-67920217D01*
X173769815Y-67952153D01*
X173768290Y-67953864D01*
X173767915Y-67955022D01*
X173744072Y-67981044D01*
X173587367Y-68109394D01*
X173523030Y-68136644D01*
X173454174Y-68124786D01*
X173402660Y-68077584D01*
X173402063Y-68076585D01*
X173399721Y-68072625D01*
X173399714Y-68072616D01*
X173285383Y-67958285D01*
X173285374Y-67958278D01*
X173146195Y-67875968D01*
X173146190Y-67875966D01*
X172990918Y-67830855D01*
X172990912Y-67830854D01*
X172970000Y-67829209D01*
X172970000Y-68484000D01*
X172950315Y-68551039D01*
X172897511Y-68596794D01*
X172846000Y-68608000D01*
X172594000Y-68608000D01*
X172526961Y-68588315D01*
X172481206Y-68535511D01*
X172470000Y-68484000D01*
X172470000Y-67829210D01*
X172469999Y-67829209D01*
X172449087Y-67830854D01*
X172449081Y-67830855D01*
X172293809Y-67875966D01*
X172293804Y-67875968D01*
X172154625Y-67958278D01*
X172154616Y-67958285D01*
X172040285Y-68072616D01*
X172040278Y-68072625D01*
X171957968Y-68211804D01*
X171957966Y-68211810D01*
X171916947Y-68352998D01*
X171879341Y-68411884D01*
X171815868Y-68441090D01*
X171746682Y-68431344D01*
X171723471Y-68417603D01*
X171165008Y-67998756D01*
X171151727Y-67987237D01*
X170958048Y-67793558D01*
X170924563Y-67732235D01*
X170929547Y-67662543D01*
X170971419Y-67606610D01*
X171006725Y-67588171D01*
X171169119Y-67534358D01*
X171169124Y-67534356D01*
X171318345Y-67442315D01*
X171442315Y-67318345D01*
X171534356Y-67169124D01*
X171534358Y-67169119D01*
X171589505Y-67002697D01*
X171589506Y-67002690D01*
X171599999Y-66899986D01*
X171600000Y-66899973D01*
X171600000Y-66850000D01*
X170524000Y-66850000D01*
X170456961Y-66830315D01*
X170411206Y-66777511D01*
X170400000Y-66726000D01*
X170400000Y-66600000D01*
X170274000Y-66600000D01*
X170206961Y-66580315D01*
X170161206Y-66527511D01*
X170150000Y-66476000D01*
X170150000Y-66350000D01*
X170650000Y-66350000D01*
X171599999Y-66350000D01*
X171599999Y-66300028D01*
X171599998Y-66300013D01*
X171589505Y-66197302D01*
X171534358Y-66030880D01*
X171534356Y-66030875D01*
X171442315Y-65881654D01*
X171318345Y-65757684D01*
X171169124Y-65665643D01*
X171169119Y-65665641D01*
X171002697Y-65610494D01*
X171002690Y-65610493D01*
X170899986Y-65600000D01*
X170650000Y-65600000D01*
X170650000Y-66350000D01*
X170150000Y-66350000D01*
X170150000Y-65573982D01*
X170147810Y-65569972D01*
X170152794Y-65500280D01*
X170191509Y-65446792D01*
X172000000Y-64000000D01*
X172000000Y-63646445D01*
X172517037Y-63129408D01*
X172534075Y-63192993D01*
G37*
%TD.AperFunction*%
%TD*%
M02*
