M48
; DRILL file KiCad 10.0.1 date 2026-04-28T10:00:29
; FORMAT={-:-/ absolute / metric / decimal}
; #@! TF.CreationDate,2026-04-28T10:00:29-06:00
; #@! TF.GenerationSoftware,Kicad,Pcbnew,10.0.1
; #@! TF.FileFunction,MixedPlating,1,2
FMAT,2
METRIC
; #@! TA.AperFunction,Plated,PTH,ViaDrill
T1C0.300
; #@! TA.AperFunction,Plated,PTH,ComponentDrill
T2C0.600
; #@! TA.AperFunction,Plated,PTH,ComponentDrill
T3C1.000
; #@! TA.AperFunction,NonPlated,NPTH,ComponentDrill
T4C1.100
; #@! TA.AperFunction,NonPlated,NPTH,ComponentDrill
T5C2.200
%
G90
G05
T1
X171.5Y-71.0
X172.25Y-65.75
X174.5Y-71.0
X178.925Y-65.0
X179.542Y-76.771
X180.225Y-64.875
X183.0Y-87.0
X193.2Y-72.2
X195.5Y-81.5
T3
X173.0Y-63.0
X173.2Y-87.2
X175.54Y-63.0
X175.74Y-87.2
X178.08Y-63.0
X178.28Y-87.2
X180.62Y-63.0
X180.82Y-87.2
X184.98Y-63.4
X187.52Y-63.4
X190.06Y-63.4
X192.6Y-63.4
T4
X196.5Y-71.0
X196.5Y-76.0
T5
X165.5Y-62.5
X165.5Y-90.5
X197.5Y-62.0
X198.0Y-90.5
T2
G00X194.3Y-71.2
M15
G01X194.3Y-70.7
M16
G05
G00X194.3Y-76.3
M15
G01X194.3Y-75.8
M16
G05
M30
